<svg xmlns="http://www.w3.org/2000/svg" id="mapOntarioWestern" viewBox="0 0 600 510">
<title>mapOntarioWestern</title>
<polygon class="cls-1" points="230.73 441.74 228.43 429.65 227.69 430.57 209.41 430.57 207.38 435.65 192.15 435.65 185.05 427.53 178.96 427.53 178.96 431.59 172.87 435.65 172.87 477.27 179.97 479.3 183.02 483.36 190.12 478.29 197.23 479.3 203.32 472.2 211.44 473.21 217.53 483.36 218.55 490.47 221.59 488.44 221.59 467.12 225.66 462.04 228.15 461.33 226.67 445.8 230.73 441.74"/>
<polygon class="cls-2" points="276.9 374.38 268.29 371.69 259.16 376.77 232.94 374.7 232.76 375.75 225.66 382.86 222.61 392 227.69 396.06 233.78 401.13 233.78 408.24 231.75 414.33 231.75 425.5 228.43 429.65 230.73 441.74 226.67 445.8 228.15 461.33 232.76 460.01 247.99 451.89 258.14 447.83 268.29 447.83 276.42 435.65 278.45 427.53 297.76 414.01 276.42 386.92 276.9 374.38"/>
<polygon class="cls-3" points="268.29 371.69 276.9 374.38 277.43 360.52 282.51 360.52 284.54 330.07 280.48 326.01 284.54 322.96 282.51 315.86 286.4 307.51 280.89 297 275.4 301.64 270.32 301.64 261.19 316.87 257.13 316.87 251.04 323.98 237.84 329.05 230.73 356.46 235.81 365.6 233.78 369.66 232.94 374.7 259.16 376.77 268.29 371.69"/>
<path class="cls-4" d="M355.6,383.87V371.69h-8.12l-4.06-11.17,13.43-6.72-9.37,1.64,9.37-1.64.78-.39V345.3l-6.09-6.09-4.06,4.06-8.42-31.16-4.78,1.72L301.8,303.67l-14.21,6.09-1.18-2.25-3.89,8.35,2,7.11-4.06,3,4.06,4.06-2,30.46h-5.08l-.53,13.86,7.64,2.39-7.64-2.39-.48,12.54L297.76,414l1-.69,3-10.15,9.14-3L318,391l29.25-1c.64-3.3,1.21-6.13,1.21-6.13Z"/>
<polygon class="cls-5" points="355.6 208.25 328.19 218.4 296.51 191 293.67 193.02 293.67 224.49 290.63 232.61 290.63 273.22 288.6 277.28 288.6 290.48 280.89 297 286.4 307.51 289.61 300.63 286.4 307.51 287.58 309.76 301.8 303.67 334.28 313.83 339.06 312.11 337.33 305.7 339.06 312.11 375.9 298.84 375.9 286.42 364.74 273.22 376.92 249.87 371.84 243.78 380.45 225.6 363.72 227.53 355.6 208.25"/>
<polygon class="cls-6" points="402.3 185.91 399.25 128.05 383.01 134.14 382 112.82 377.93 108.76 374.89 110.79 374.89 118.91 369.81 122.97 365.75 122.97 366.77 105.71 358.65 101.65 352.56 106.73 347.48 100.64 354.58 91.5 358.65 79.32 369.81 66.12 354.58 66.12 351.54 75.26 347.48 68.15 339.36 74.24 338.34 67.14 341.39 64.09 338.34 59.01 332.25 53.94 326.16 55.97 322.1 44.8 316.01 39.73 324.13 31.6 320.07 23.48 309.92 29.57 289.61 23.48 285.55 30.59 298.75 35.66 298.75 40.74 303.82 43.79 303.82 48.86 314.99 60.03 320.07 60.03 320.07 65.11 320.07 69.17 335.3 98.61 333.27 101.65 332.25 111.8 320.07 135.15 321.08 146.32 313.98 146.32 308.9 153.43 304.84 153.43 301.8 162.56 304.84 165.61 300.78 187.94 296.51 191 328.19 218.4 355.6 208.25 363.72 227.53 380.45 225.6 380.98 224.49 382 213.32 402.3 209.26 404.33 197.08 407.38 192 402.3 185.91"/>
<polygon class="cls-7" points="347.48 343.27 351.54 339.21 357.63 345.3 357.63 353.42 356.85 353.81 381.94 349.42 378.95 329.05 393.16 324.99 389.1 301.64 375.9 301.64 375.9 298.84 339.06 312.11 347.48 343.27"/>
<path class="cls-8" d="M343.42,360.53l4.06,11.17h8.12v12.18h-7.11s-.57,2.83-1.21,6.13l1.21,0,14.21-1L380,396.06l4.06-3-5.08-10.15,8.12-8.12L382,367.63l2-4.06-2.08-14.15-25.09,4.39Z"/>
<path class="cls-9" d="M326.81,166.52a2.83,2.83,0,0,1-1.28.91,5.24,5.24,0,0,1-1.86.31,3.67,3.67,0,0,1-1.9-.49,3.24,3.24,0,0,1-1.27-1.39,4.87,4.87,0,0,1-.47-2.11v-.67a4.52,4.52,0,0,1,.93-3,3.21,3.21,0,0,1,2.58-1.09,3.4,3.4,0,0,1,2.26.71,3,3,0,0,1,1,2h-1.45a1.63,1.63,0,0,0-1.79-1.54,1.75,1.75,0,0,0-1.51.72,3.64,3.64,0,0,0-.54,2.1v.65a3.46,3.46,0,0,0,.58,2.14,1.92,1.92,0,0,0,1.62.76,2.14,2.14,0,0,0,1.62-.51v-1.66h-1.76v-1.12h3.23Z"/>
<path class="cls-9" d="M331.86,162.59a3.52,3.52,0,0,0-.58,0,1.31,1.31,0,0,0-1.32.75v4.34h-1.42v-6.34h1.36l0,.71a1.6,1.6,0,0,1,1.43-.83,1.33,1.33,0,0,1,.5.08Z"/>
<path class="cls-9" d="M335.68,167.75a3,3,0,0,1-2.19-.85,3.09,3.09,0,0,1-.84-2.27v-.18a3.8,3.8,0,0,1,.37-1.7,2.79,2.79,0,0,1,1-1.16,2.72,2.72,0,0,1,1.48-.42,2.49,2.49,0,0,1,2,.83,3.49,3.49,0,0,1,.71,2.34v.57h-4.14a1.9,1.9,0,0,0,.52,1.24,1.57,1.57,0,0,0,1.16.46,1.93,1.93,0,0,0,1.59-.79l.77.73a2.56,2.56,0,0,1-1,.88A3.18,3.18,0,0,1,335.68,167.75Zm-.17-5.43a1.2,1.2,0,0,0-.95.41,2.13,2.13,0,0,0-.46,1.14h2.71v-.11a1.73,1.73,0,0,0-.38-1.08A1.19,1.19,0,0,0,335.51,162.31Z"/>
<path class="cls-9" d="M341.71,165.59l1.29-4.3h1.52l-2.52,7.3a2,2,0,0,1-2,1.6,2.52,2.52,0,0,1-.69-.11V169l.27,0a1.39,1.39,0,0,0,.81-.2,1.3,1.3,0,0,0,.43-.66l.21-.54-2.23-6.31h1.54Z"/>
<path class="cls-9" d="M349.4,164.58h-3.08v-1.15h3.08Z"/>
<path class="cls-9" d="M352,167.63V159.1h2.92a3.57,3.57,0,0,1,2.2.58,2,2,0,0,1,.76,1.73,1.84,1.84,0,0,1-.32,1.05,2,2,0,0,1-.93.73,1.88,1.88,0,0,1,1.07.71,2.06,2.06,0,0,1,.38,1.25,2.27,2.27,0,0,1-.77,1.85,3.35,3.35,0,0,1-2.21.64Zm1.48-4.94h1.45a1.68,1.68,0,0,0,1.08-.31,1.07,1.07,0,0,0,.39-.89,1.09,1.09,0,0,0-.36-.91,1.82,1.82,0,0,0-1.12-.28h-1.44Zm0,1.09v2.65h1.65a1.6,1.6,0,0,0,1.09-.34,1.36,1.36,0,0,0-1-2.31Z"/>
<path class="cls-9" d="M363,162.59a3.52,3.52,0,0,0-.58,0,1.31,1.31,0,0,0-1.32.75v4.34h-1.42v-6.34H361l0,.71a1.6,1.6,0,0,1,1.43-.83,1.33,1.33,0,0,1,.5.08Z"/>
<path class="cls-9" d="M368,167a2.21,2.21,0,0,1-1.78.74,2,2,0,0,1-1.56-.6,2.57,2.57,0,0,1-.53-1.75v-4.11h1.42v4.09q0,1.21,1,1.21a1.41,1.41,0,0,0,1.4-.74v-4.55h1.42v6.34H368Z"/>
<path class="cls-9" d="M373.65,166.61a1.29,1.29,0,0,0,.88-.31,1.06,1.06,0,0,0,.38-.77h1.34a2.09,2.09,0,0,1-.37,1.1,2.42,2.42,0,0,1-.94.81,2.79,2.79,0,0,1-1.28.3,2.7,2.7,0,0,1-2.11-.86,3.42,3.42,0,0,1-.78-2.38v-.15a3.36,3.36,0,0,1,.77-2.32,2.68,2.68,0,0,1,2.11-.87,2.6,2.6,0,0,1,1.84.66,2.36,2.36,0,0,1,.75,1.73H374.9a1.3,1.3,0,0,0-.37-.9,1.2,1.2,0,0,0-.89-.35,1.25,1.25,0,0,0-1.07.5,2.56,2.56,0,0,0-.38,1.52v.23a2.6,2.6,0,0,0,.37,1.54A1.25,1.25,0,0,0,373.65,166.61Z"/>
<path class="cls-9" d="M380.35,167.75a3,3,0,0,1-2.19-.85,3.09,3.09,0,0,1-.84-2.27v-.18a3.8,3.8,0,0,1,.37-1.7,2.79,2.79,0,0,1,1-1.16,2.72,2.72,0,0,1,1.48-.42,2.49,2.49,0,0,1,2,.83,3.49,3.49,0,0,1,.71,2.34v.57h-4.14a1.9,1.9,0,0,0,.52,1.24,1.57,1.57,0,0,0,1.16.46,1.93,1.93,0,0,0,1.59-.79l.77.73a2.56,2.56,0,0,1-1,.88A3.18,3.18,0,0,1,380.35,167.75Zm-.17-5.43a1.2,1.2,0,0,0-.95.41,2.13,2.13,0,0,0-.46,1.14h2.71v-.11a1.73,1.73,0,0,0-.38-1.08A1.19,1.19,0,0,0,380.18,162.31Z"/>
<path class="cls-9" d="M313.06,180.33a2,2,0,0,1,.32-1.09,5.06,5.06,0,0,1,1.27-1.17A5.31,5.31,0,0,1,314,177a2.21,2.21,0,0,1,.41-2.43A2.27,2.27,0,0,1,316,174a2.16,2.16,0,0,1,1.53.55,1.77,1.77,0,0,1,.59,1.36,1.87,1.87,0,0,1-.27,1,3.19,3.19,0,0,1-.88.89l-.58.42,1.65,1.95a3.4,3.4,0,0,0,.36-1.56h1.24a4.26,4.26,0,0,1-.74,2.58l1.25,1.48H318.5l-.48-.57a3.53,3.53,0,0,1-2.18.69,2.94,2.94,0,0,1-2-.67A2.22,2.22,0,0,1,313.06,180.33Zm2.82,1.28a2.17,2.17,0,0,0,1.35-.48l-1.86-2.2-.18.13a1.52,1.52,0,0,0-.7,1.22,1.28,1.28,0,0,0,.38,1A1.4,1.4,0,0,0,315.88,181.61Zm-.79-5.5a2.18,2.18,0,0,0,.6,1.24l.65-.45.18-.15a1.05,1.05,0,0,0,.36-.83.76.76,0,0,0-.25-.57.89.89,0,0,0-.64-.24.84.84,0,0,0-.66.28A1,1,0,0,0,315.1,176.11Z"/>
<path class="cls-9" d="M331.37,178.59a5.23,5.23,0,0,1-.43,2.2,3.28,3.28,0,0,1-1.24,1.45,3.64,3.64,0,0,1-3.7,0,3.33,3.33,0,0,1-1.25-1.44,5.07,5.07,0,0,1-.45-2.16v-.48a5.19,5.19,0,0,1,.44-2.2,3.32,3.32,0,0,1,1.25-1.46,3.64,3.64,0,0,1,3.7,0,3.28,3.28,0,0,1,1.25,1.44,5.18,5.18,0,0,1,.45,2.19Zm-1.48-.45a3.73,3.73,0,0,0-.54-2.17,1.89,1.89,0,0,0-3,0,3.66,3.66,0,0,0-.55,2.13v.49a3.7,3.7,0,0,0,.55,2.17,1.76,1.76,0,0,0,1.52.77,1.74,1.74,0,0,0,1.51-.75,3.78,3.78,0,0,0,.53-2.19Z"/>
<path class="cls-9" d="M338.52,180.67l1-4.38h1.39l-1.73,6.34H338l-1.36-4.35-1.34,4.35h-1.17l-1.73-6.34h1.39l1,4.33,1.3-4.33h1.07Z"/>
<path class="cls-9" d="M344.9,182.75a3,3,0,0,1-2.19-.85,3.09,3.09,0,0,1-.84-2.27v-.18a3.8,3.8,0,0,1,.37-1.7,2.79,2.79,0,0,1,1-1.16,2.72,2.72,0,0,1,1.48-.42,2.49,2.49,0,0,1,2,.83,3.49,3.49,0,0,1,.71,2.34v.57H343.3a1.9,1.9,0,0,0,.52,1.24,1.57,1.57,0,0,0,1.16.46,1.93,1.93,0,0,0,1.59-.79l.77.73a2.56,2.56,0,0,1-1,.88A3.18,3.18,0,0,1,344.9,182.75Zm-.17-5.43a1.2,1.2,0,0,0-.95.41,2.13,2.13,0,0,0-.46,1.14H346v-.11a1.73,1.73,0,0,0-.38-1.08A1.19,1.19,0,0,0,344.73,177.31Z"/>
<path class="cls-9" d="M350.11,176.29l0,.73a2.28,2.28,0,0,1,1.85-.85q2,0,2,2.27v4.19h-1.42v-4.11a1.31,1.31,0,0,0-.26-.89,1.1,1.1,0,0,0-.85-.29,1.37,1.37,0,0,0-1.28.78v4.51h-1.42v-6.34Z"/>
<path class="cls-9" d="M363.52,180.43a1,1,0,0,0-.4-.87,4.76,4.76,0,0,0-1.43-.62,6.89,6.89,0,0,1-1.64-.69,2.19,2.19,0,0,1-1.17-1.91,2.08,2.08,0,0,1,.84-1.7,3.4,3.4,0,0,1,2.18-.67,3.69,3.69,0,0,1,1.59.33,2.61,2.61,0,0,1,1.1.93,2.4,2.4,0,0,1,.4,1.34h-1.48a1.32,1.32,0,0,0-.42-1,1.74,1.74,0,0,0-1.2-.37,1.81,1.81,0,0,0-1.13.31,1,1,0,0,0-.4.86.93.93,0,0,0,.43.78,5,5,0,0,0,1.43.61,6.54,6.54,0,0,1,1.6.67,2.54,2.54,0,0,1,.88.87,2.26,2.26,0,0,1,.28,1.15,2,2,0,0,1-.82,1.7,3.55,3.55,0,0,1-2.22.63,4.17,4.17,0,0,1-1.7-.34,2.86,2.86,0,0,1-1.21-.95,2.36,2.36,0,0,1-.43-1.41h1.48a1.38,1.38,0,0,0,.48,1.13,2.1,2.1,0,0,0,1.38.4,1.83,1.83,0,0,0,1.16-.31A1,1,0,0,0,363.52,180.43Z"/>
<path class="cls-9" d="M366.14,179.4a3.74,3.74,0,0,1,.37-1.68,2.7,2.7,0,0,1,1-1.15,2.92,2.92,0,0,1,1.54-.4,2.77,2.77,0,0,1,2.08.83,3.25,3.25,0,0,1,.86,2.19v.33a3.77,3.77,0,0,1-.36,1.68,2.66,2.66,0,0,1-1,1.14,2.94,2.94,0,0,1-1.55.4,2.75,2.75,0,0,1-2.15-.89,3.42,3.42,0,0,1-.81-2.38Zm1.42.12a2.55,2.55,0,0,0,.4,1.53,1.31,1.31,0,0,0,1.13.55,1.3,1.3,0,0,0,1.12-.56,2.82,2.82,0,0,0,.4-1.65,2.52,2.52,0,0,0-.41-1.52,1.39,1.39,0,0,0-2.23,0A2.77,2.77,0,0,0,367.57,179.52Z"/>
<path class="cls-9" d="M377.32,182a2.21,2.21,0,0,1-1.78.74,2,2,0,0,1-1.56-.6,2.57,2.57,0,0,1-.53-1.75v-4.11h1.42v4.09q0,1.21,1,1.21a1.41,1.41,0,0,0,1.4-.74v-4.55h1.42v6.34h-1.34Z"/>
<path class="cls-9" d="M381.71,176.29l0,.73a2.28,2.28,0,0,1,1.85-.85q2,0,2,2.27v4.19h-1.42v-4.11a1.31,1.31,0,0,0-.26-.89,1.1,1.1,0,0,0-.85-.29,1.37,1.37,0,0,0-1.28.78v4.51h-1.42v-6.34Z"/>
<path class="cls-9" d="M387,179.41a3.77,3.77,0,0,1,.68-2.35,2.18,2.18,0,0,1,1.82-.89,2.07,2.07,0,0,1,1.63.7v-3.25h1.42v9H391.3l-.07-.66a2.1,2.1,0,0,1-1.71.77,2.17,2.17,0,0,1-1.8-.9A3.91,3.91,0,0,1,387,179.41Zm1.42.12a2.64,2.64,0,0,0,.37,1.51,1.21,1.21,0,0,0,1.06.54,1.34,1.34,0,0,0,1.28-.78V178.1a1.32,1.32,0,0,0-1.27-.76,1.22,1.22,0,0,0-1.07.55A2.94,2.94,0,0,0,388.46,179.54Z"/>
<path class="cls-9" d="M303.13,261h-1.48v-3.79h-3.81V261h-1.48v-8.53h1.48V256h3.81v-3.55h1.48Z"/>
<path class="cls-9" d="M308.83,260.38a2.21,2.21,0,0,1-1.78.74,2,2,0,0,1-1.56-.6,2.57,2.57,0,0,1-.53-1.75v-4.11h1.42v4.09q0,1.21,1,1.21a1.41,1.41,0,0,0,1.4-.74v-4.55h1.42V261h-1.34Z"/>
<path class="cls-9" d="M315.22,256a3.52,3.52,0,0,0-.58,0,1.31,1.31,0,0,0-1.32.75V261h-1.42v-6.34h1.36l0,.71a1.6,1.6,0,0,1,1.43-.83,1.33,1.33,0,0,1,.5.08Z"/>
<path class="cls-9" d="M315.88,257.77a3.74,3.74,0,0,1,.37-1.68,2.7,2.7,0,0,1,1-1.15,2.92,2.92,0,0,1,1.54-.4,2.77,2.77,0,0,1,2.08.83,3.25,3.25,0,0,1,.86,2.19v.33a3.77,3.77,0,0,1-.36,1.68,2.66,2.66,0,0,1-1,1.14,2.94,2.94,0,0,1-1.55.4,2.75,2.75,0,0,1-2.15-.89,3.42,3.42,0,0,1-.81-2.38Zm1.42.12a2.55,2.55,0,0,0,.4,1.53,1.31,1.31,0,0,0,1.13.55,1.3,1.3,0,0,0,1.12-.56,2.82,2.82,0,0,0,.4-1.65,2.52,2.52,0,0,0-.41-1.52,1.39,1.39,0,0,0-2.23,0A2.77,2.77,0,0,0,317.3,257.89Z"/>
<path class="cls-9" d="M324.54,254.66l0,.73a2.28,2.28,0,0,1,1.85-.85q2,0,2,2.27V261H327v-4.11a1.31,1.31,0,0,0-.26-.89,1.1,1.1,0,0,0-.85-.29,1.37,1.37,0,0,0-1.28.78V261H323.2v-6.34Z"/>
<path class="cls-9" d="M334,257.95h-3.08V256.8H334Z"/>
<path class="cls-9" d="M338,257.84V261h-1.48v-8.53h3.26a3.3,3.3,0,0,1,2.27.75,2.5,2.5,0,0,1,.84,2,2.42,2.42,0,0,1-.82,2,3.46,3.46,0,0,1-2.31.7Zm0-1.2h1.78a1.75,1.75,0,0,0,1.21-.37,1.37,1.37,0,0,0,.42-1.08,1.48,1.48,0,0,0-.42-1.1,1.63,1.63,0,0,0-1.16-.42H338Z"/>
<path class="cls-9" d="M347,261.12a3,3,0,0,1-2.19-.85A3.09,3.09,0,0,1,344,258v-.18a3.8,3.8,0,0,1,.37-1.7,2.79,2.79,0,0,1,1-1.16,2.72,2.72,0,0,1,1.48-.42,2.49,2.49,0,0,1,2,.83,3.49,3.49,0,0,1,.71,2.34v.57h-4.14a1.9,1.9,0,0,0,.52,1.24,1.57,1.57,0,0,0,1.16.46,1.93,1.93,0,0,0,1.59-.79l.77.73a2.56,2.56,0,0,1-1,.88A3.18,3.18,0,0,1,347,261.12Zm-.17-5.43a1.2,1.2,0,0,0-.95.41,2.13,2.13,0,0,0-.46,1.14h2.71v-.11a1.73,1.73,0,0,0-.38-1.08A1.19,1.19,0,0,0,346.88,255.69Z"/>
<path class="cls-9" d="M354.25,256a3.52,3.52,0,0,0-.58,0,1.31,1.31,0,0,0-1.32.75V261h-1.42v-6.34h1.36l0,.71a1.6,1.6,0,0,1,1.43-.83,1.33,1.33,0,0,1,.5.08Z"/>
<path class="cls-9" d="M357.47,253.12v1.54h1.12v1.05h-1.12v3.54a.78.78,0,0,0,.14.52.67.67,0,0,0,.51.16,2.19,2.19,0,0,0,.5-.06V261a3.51,3.51,0,0,1-.94.13q-1.64,0-1.64-1.81v-3.59h-1v-1.05h1v-1.54Z"/>
<path class="cls-9" d="M361.32,255.35a2.23,2.23,0,0,1,1.76-.81q2,0,2.06,2.31V261h-1.42v-4.09a1.25,1.25,0,0,0-.28-.93,1.16,1.16,0,0,0-.83-.27,1.37,1.37,0,0,0-1.28.76V261H359.9v-9h1.42Z"/>
<path class="cls-6" d="M292.93,438.22a3.08,3.08,0,0,1-1,2.13,3.44,3.44,0,0,1-2.34.76,3.33,3.33,0,0,1-1.8-.48,3.17,3.17,0,0,1-1.2-1.37,5,5,0,0,1-.44-2.07v-.8a5,5,0,0,1,.43-2.13,3.22,3.22,0,0,1,1.23-1.42,3.42,3.42,0,0,1,1.85-.5,3.3,3.3,0,0,1,2.27.76,3.2,3.2,0,0,1,1,2.17h-1.48a2.11,2.11,0,0,0-.54-1.33,1.77,1.77,0,0,0-1.26-.41,1.73,1.73,0,0,0-1.49.71,3.53,3.53,0,0,0-.53,2.07v.76a3.75,3.75,0,0,0,.5,2.11,1.64,1.64,0,0,0,1.45.73,1.92,1.92,0,0,0,1.31-.39,2,2,0,0,0,.56-1.31Z"/>
<path class="cls-6" d="M295.76,435.35a2.23,2.23,0,0,1,1.76-.81q2,0,2.06,2.31V441h-1.42v-4.09a1.25,1.25,0,0,0-.28-.93,1.16,1.16,0,0,0-.83-.27,1.37,1.37,0,0,0-1.28.76V441h-1.42v-9h1.42Z"/>
<path class="cls-6" d="M305,441a2.2,2.2,0,0,1-.16-.59,2.4,2.4,0,0,1-3.22.16,1.74,1.74,0,0,1-.6-1.35,1.8,1.8,0,0,1,.75-1.56,3.65,3.65,0,0,1,2.15-.54h.87v-.42a1.11,1.11,0,0,0-.28-.79,1.09,1.09,0,0,0-.84-.3,1.25,1.25,0,0,0-.8.24.75.75,0,0,0-.31.62h-1.42a1.58,1.58,0,0,1,.35-1,2.3,2.3,0,0,1,.94-.71,3.3,3.3,0,0,1,1.33-.26,2.66,2.66,0,0,1,1.78.56,2,2,0,0,1,.68,1.57v2.86a3.24,3.24,0,0,0,.24,1.37v.1Zm-1.56-1a1.62,1.62,0,0,0,.79-.21,1.37,1.37,0,0,0,.56-.55V438h-.77a2.1,2.1,0,0,0-1.19.28.89.89,0,0,0-.4.78.83.83,0,0,0,.27.65A1.06,1.06,0,0,0,303.48,440Z"/>
<path class="cls-6" d="M309.77,433.12v1.54h1.12v1.05h-1.12v3.54a.78.78,0,0,0,.14.52.67.67,0,0,0,.51.16,2.19,2.19,0,0,0,.5-.06V441a3.51,3.51,0,0,1-.94.13q-1.64,0-1.64-1.81v-3.59h-1v-1.05h1v-1.54Z"/>
<path class="cls-6" d="M313.62,435.35a2.23,2.23,0,0,1,1.76-.81q2,0,2.06,2.31V441H316v-4.09a1.25,1.25,0,0,0-.28-.93,1.16,1.16,0,0,0-.83-.27,1.37,1.37,0,0,0-1.28.76V441H312.2v-9h1.42Z"/>
<path class="cls-6" d="M322.91,441a2.2,2.2,0,0,1-.16-.59,2.4,2.4,0,0,1-3.22.16,1.74,1.74,0,0,1-.6-1.35,1.8,1.8,0,0,1,.75-1.56,3.65,3.65,0,0,1,2.15-.54h.87v-.42a1.11,1.11,0,0,0-.28-.79,1.09,1.09,0,0,0-.84-.3,1.25,1.25,0,0,0-.8.24.75.75,0,0,0-.31.62h-1.42a1.58,1.58,0,0,1,.35-1,2.3,2.3,0,0,1,.94-.71,3.3,3.3,0,0,1,1.33-.26,2.66,2.66,0,0,1,1.78.56,2,2,0,0,1,.68,1.57v2.86a3.24,3.24,0,0,0,.24,1.37v.1Zm-1.56-1a1.62,1.62,0,0,0,.79-.21,1.37,1.37,0,0,0,.56-.55V438h-.77a2.1,2.1,0,0,0-1.19.28.89.89,0,0,0-.4.78.83.83,0,0,0,.27.65A1.06,1.06,0,0,0,321.35,440Z"/>
<path class="cls-6" d="M327.19,434.66l0,.66a2.28,2.28,0,0,1,1.83-.78,1.75,1.75,0,0,1,1.74,1,2.25,2.25,0,0,1,1.95-1,2,2,0,0,1,1.56.58,2.55,2.55,0,0,1,.52,1.71V441h-1.42v-4.12a1.26,1.26,0,0,0-.26-.88,1.15,1.15,0,0,0-.87-.28,1.19,1.19,0,0,0-.79.26,1.38,1.38,0,0,0-.43.68V441h-1.42v-4.17a1,1,0,0,0-1.14-1.12,1.25,1.25,0,0,0-1.21.7V441h-1.42v-6.34Z"/>
<path class="cls-6" d="M340.5,437.95h-3.08V436.8h3.08Z"/>
<path class="cls-6" d="M345.46,437.31l-1,1V441H343v-8.53h1.48v4l.82-1,2.5-3h1.79l-3.17,3.78,3.35,4.75H348Z"/>
<path class="cls-6" d="M353.32,441.12a3,3,0,0,1-2.19-.85,3.09,3.09,0,0,1-.84-2.27v-.18a3.8,3.8,0,0,1,.37-1.7,2.79,2.79,0,0,1,1-1.16,2.72,2.72,0,0,1,1.48-.42,2.49,2.49,0,0,1,2,.83,3.49,3.49,0,0,1,.71,2.34v.57h-4.14a1.9,1.9,0,0,0,.52,1.24,1.57,1.57,0,0,0,1.16.46,1.93,1.93,0,0,0,1.59-.79l.77.73a2.56,2.56,0,0,1-1,.88A3.18,3.18,0,0,1,353.32,441.12Zm-.17-5.43a1.2,1.2,0,0,0-.95.41,2.13,2.13,0,0,0-.46,1.14h2.71v-.11a1.73,1.73,0,0,0-.38-1.08A1.19,1.19,0,0,0,353.15,435.69Z"/>
<path class="cls-6" d="M358.52,434.66l0,.73a2.28,2.28,0,0,1,1.85-.85q2,0,2,2.27V441H361v-4.11a1.31,1.31,0,0,0-.26-.89,1.1,1.1,0,0,0-.85-.29,1.37,1.37,0,0,0-1.28.78V441h-1.42v-6.34Z"/>
<path class="cls-6" d="M365.9,433.12v1.54H367v1.05H365.9v3.54a.78.78,0,0,0,.14.52.67.67,0,0,0,.51.16,2.19,2.19,0,0,0,.5-.06V441a3.51,3.51,0,0,1-.94.13q-1.64,0-1.64-1.81v-3.59h-1v-1.05h1v-1.54Z"/>
<path class="cls-9" d="M291.93,348.22h3.87v1.2h-5.36v-8.53h1.48Z"/>
<path class="cls-9" d="M296.77,346.19a3.74,3.74,0,0,1,.37-1.68,2.7,2.7,0,0,1,1-1.15,2.92,2.92,0,0,1,1.54-.4,2.77,2.77,0,0,1,2.08.83,3.25,3.25,0,0,1,.86,2.19v.33a3.77,3.77,0,0,1-.36,1.68,2.66,2.66,0,0,1-1,1.14,2.94,2.94,0,0,1-1.55.4,2.75,2.75,0,0,1-2.15-.89,3.42,3.42,0,0,1-.81-2.38Zm1.42.12a2.55,2.55,0,0,0,.4,1.53,1.31,1.31,0,0,0,1.13.55,1.3,1.3,0,0,0,1.12-.56,2.82,2.82,0,0,0,.4-1.65,2.52,2.52,0,0,0-.41-1.52,1.39,1.39,0,0,0-2.23,0A2.77,2.77,0,0,0,298.2,346.31Z"/>
<path class="cls-9" d="M305.44,343.08l0,.73a2.28,2.28,0,0,1,1.85-.85q2,0,2,2.27v4.19h-1.42v-4.11a1.31,1.31,0,0,0-.26-.89,1.1,1.1,0,0,0-.85-.29,1.37,1.37,0,0,0-1.28.78v4.51h-1.42v-6.34Z"/>
<path class="cls-9" d="M310.76,346.2a3.77,3.77,0,0,1,.68-2.35,2.18,2.18,0,0,1,1.82-.89,2.07,2.07,0,0,1,1.63.7v-3.25h1.42v9H315l-.07-.66a2.1,2.1,0,0,1-1.71.77,2.17,2.17,0,0,1-1.8-.9A3.91,3.91,0,0,1,310.76,346.2Zm1.42.12a2.64,2.64,0,0,0,.37,1.51,1.21,1.21,0,0,0,1.06.54,1.34,1.34,0,0,0,1.28-.78v-2.71a1.32,1.32,0,0,0-1.27-.76,1.22,1.22,0,0,0-1.07.55A2.94,2.94,0,0,0,312.18,346.32Z"/>
<path class="cls-9" d="M317.77,346.19a3.74,3.74,0,0,1,.37-1.68,2.7,2.7,0,0,1,1-1.15,2.92,2.92,0,0,1,1.54-.4,2.77,2.77,0,0,1,2.08.83,3.25,3.25,0,0,1,.86,2.19v.33a3.77,3.77,0,0,1-.36,1.68,2.66,2.66,0,0,1-1,1.14,2.94,2.94,0,0,1-1.55.4,2.75,2.75,0,0,1-2.15-.89,3.42,3.42,0,0,1-.81-2.38Zm1.42.12a2.55,2.55,0,0,0,.4,1.53,1.31,1.31,0,0,0,1.13.55,1.3,1.3,0,0,0,1.12-.56,2.82,2.82,0,0,0,.4-1.65,2.52,2.52,0,0,0-.41-1.52,1.39,1.39,0,0,0-2.23,0A2.77,2.77,0,0,0,319.2,346.31Z"/>
<path class="cls-9" d="M326.43,343.08l0,.73a2.28,2.28,0,0,1,1.85-.85q2,0,2,2.27v4.19h-1.42v-4.11a1.31,1.31,0,0,0-.26-.89,1.1,1.1,0,0,0-.85-.29,1.37,1.37,0,0,0-1.28.78v4.51h-1.42v-6.34Z"/>
<path class="cls-9" d="M334.07,347.12a2,2,0,0,1,.32-1.09,5.06,5.06,0,0,1,1.27-1.17,5.31,5.31,0,0,1-.69-1.07,2.21,2.21,0,0,1,.41-2.43,2.27,2.27,0,0,1,1.64-.58,2.16,2.16,0,0,1,1.53.55,1.77,1.77,0,0,1,.59,1.36,1.87,1.87,0,0,1-.27,1,3.19,3.19,0,0,1-.88.89l-.58.42,1.65,1.95a3.4,3.4,0,0,0,.36-1.56h1.24a4.26,4.26,0,0,1-.74,2.58l1.25,1.48h-1.65l-.48-.57a3.53,3.53,0,0,1-2.18.69,2.94,2.94,0,0,1-2-.67A2.22,2.22,0,0,1,334.07,347.12Zm2.82,1.28a2.17,2.17,0,0,0,1.35-.48l-1.86-2.2-.18.13a1.52,1.52,0,0,0-.7,1.22,1.28,1.28,0,0,0,.38,1A1.4,1.4,0,0,0,336.89,348.4Zm-.79-5.5a2.18,2.18,0,0,0,.6,1.24l.65-.45.18-.15a1.05,1.05,0,0,0,.36-.83.76.76,0,0,0-.25-.57.89.89,0,0,0-.64-.24.84.84,0,0,0-.66.28A1,1,0,0,0,336.11,342.9Z"/>
<path class="cls-9" d="M291.66,362.22a1,1,0,0,0-.4-.87,4.76,4.76,0,0,0-1.43-.62,6.89,6.89,0,0,1-1.64-.69,2.19,2.19,0,0,1-1.17-1.91,2.08,2.08,0,0,1,.84-1.7,3.4,3.4,0,0,1,2.18-.67,3.69,3.69,0,0,1,1.59.33,2.61,2.61,0,0,1,1.1.93,2.4,2.4,0,0,1,.4,1.34h-1.48a1.32,1.32,0,0,0-.42-1A1.74,1.74,0,0,0,290,357a1.81,1.81,0,0,0-1.13.31,1,1,0,0,0-.4.86.93.93,0,0,0,.43.78,5,5,0,0,0,1.43.61,6.54,6.54,0,0,1,1.6.67,2.54,2.54,0,0,1,.88.87,2.26,2.26,0,0,1,.28,1.15,2,2,0,0,1-.82,1.7,3.55,3.55,0,0,1-2.22.63,4.17,4.17,0,0,1-1.7-.34,2.86,2.86,0,0,1-1.21-.95,2.36,2.36,0,0,1-.43-1.41h1.48a1.38,1.38,0,0,0,.48,1.13,2.1,2.1,0,0,0,1.38.4,1.83,1.83,0,0,0,1.16-.31A1,1,0,0,0,291.66,362.22Z"/>
<path class="cls-9" d="M296.33,356.54v1.54h1.12v1.05h-1.12v3.54a.78.78,0,0,0,.14.52.67.67,0,0,0,.51.16,2.19,2.19,0,0,0,.5-.06v1.1a3.51,3.51,0,0,1-.94.13q-1.64,0-1.64-1.81v-3.59h-1v-1.05h1v-1.54Z"/>
<path class="cls-9" d="M299.67,362.92a.81.81,0,0,1,.62.23.78.78,0,0,1,.22.57.76.76,0,0,1-.22.55,1,1,0,0,1-1.22,0,.74.74,0,0,1-.22-.56.78.78,0,0,1,.22-.57A.81.81,0,0,1,299.67,362.92Z"/>
<path class="cls-9" d="M309.63,357.08H307v7.34H305.5v-7.34h-2.64v-1.2h6.77Z"/>
<path class="cls-9" d="M312.26,358.77A2.23,2.23,0,0,1,314,358q2,0,2.06,2.31v4.14h-1.42v-4.09a1.25,1.25,0,0,0-.28-.93,1.16,1.16,0,0,0-.83-.27,1.37,1.37,0,0,0-1.28.76v4.53h-1.42v-9h1.42Z"/>
<path class="cls-9" d="M317.49,361.19a3.74,3.74,0,0,1,.37-1.68,2.7,2.7,0,0,1,1-1.15,2.92,2.92,0,0,1,1.54-.4,2.77,2.77,0,0,1,2.08.83,3.25,3.25,0,0,1,.86,2.19v.33A3.77,3.77,0,0,1,323,363a2.66,2.66,0,0,1-1,1.14,2.94,2.94,0,0,1-1.55.4,2.75,2.75,0,0,1-2.15-.89,3.42,3.42,0,0,1-.81-2.38Zm1.42.12a2.55,2.55,0,0,0,.4,1.53,1.31,1.31,0,0,0,1.13.55,1.3,1.3,0,0,0,1.12-.56,2.82,2.82,0,0,0,.4-1.65,2.52,2.52,0,0,0-.41-1.52,1.39,1.39,0,0,0-2.23,0A2.77,2.77,0,0,0,318.91,361.31Z"/>
<path class="cls-9" d="M326.17,358.08l0,.66A2.28,2.28,0,0,1,328,358a1.75,1.75,0,0,1,1.74,1,2.25,2.25,0,0,1,1.95-1,2,2,0,0,1,1.56.58,2.55,2.55,0,0,1,.52,1.71v4.17h-1.42v-4.12a1.26,1.26,0,0,0-.26-.88,1.15,1.15,0,0,0-.87-.28,1.19,1.19,0,0,0-.79.26,1.38,1.38,0,0,0-.43.68v4.35H328.6v-4.17a1,1,0,0,0-1.14-1.12,1.25,1.25,0,0,0-1.21.7v4.59h-1.42v-6.34Z"/>
<path class="cls-9" d="M339.3,364.42a2.2,2.2,0,0,1-.16-.59,2.4,2.4,0,0,1-3.22.16,1.74,1.74,0,0,1-.6-1.35,1.8,1.8,0,0,1,.75-1.56,3.65,3.65,0,0,1,2.15-.54h.87v-.42a1.11,1.11,0,0,0-.28-.79,1.09,1.09,0,0,0-.84-.3,1.25,1.25,0,0,0-.8.24.75.75,0,0,0-.31.62h-1.42a1.58,1.58,0,0,1,.35-1,2.3,2.3,0,0,1,.94-.71,3.3,3.3,0,0,1,1.33-.26,2.66,2.66,0,0,1,1.78.56,2,2,0,0,1,.68,1.57V363a3.24,3.24,0,0,0,.24,1.37v.1Zm-1.56-1a1.62,1.62,0,0,0,.79-.21,1.37,1.37,0,0,0,.56-.55v-1.2h-.77a2.1,2.1,0,0,0-1.19.28.89.89,0,0,0-.4.78.83.83,0,0,0,.27.65A1.06,1.06,0,0,0,337.73,363.39Z"/>
<path class="cls-9" d="M345.8,362.7a.65.65,0,0,0-.31-.58,3.33,3.33,0,0,0-1-.35,5.35,5.35,0,0,1-1.21-.39,1.62,1.62,0,0,1-1.07-1.49,1.69,1.69,0,0,1,.69-1.37,2.73,2.73,0,0,1,1.76-.55,2.84,2.84,0,0,1,1.84.56,1.78,1.78,0,0,1,.7,1.46h-1.42a.88.88,0,0,0-.3-.68,1.17,1.17,0,0,0-.81-.27,1.26,1.26,0,0,0-.76.22.68.68,0,0,0-.3.58.58.58,0,0,0,.28.51,3.79,3.79,0,0,0,1.11.37,5.27,5.27,0,0,1,1.32.44,1.86,1.86,0,0,1,.71.61,1.56,1.56,0,0,1,.23.87,1.65,1.65,0,0,1-.71,1.39,3,3,0,0,1-1.86.53,3.28,3.28,0,0,1-1.39-.28,2.29,2.29,0,0,1-.95-.77,1.83,1.83,0,0,1-.34-1.06h1.38a1,1,0,0,0,.38.78,1.48,1.48,0,0,0,.93.27,1.44,1.44,0,0,0,.86-.21A.66.66,0,0,0,345.8,362.7Z"/>
<path class="cls-6" d="M144.54,340.19a1,1,0,0,0-.4-.87,4.76,4.76,0,0,0-1.43-.62,6.89,6.89,0,0,1-1.64-.69,2.19,2.19,0,0,1-1.17-1.91,2.08,2.08,0,0,1,.84-1.7,3.4,3.4,0,0,1,2.18-.67,3.69,3.69,0,0,1,1.59.33,2.61,2.61,0,0,1,1.1.93,2.4,2.4,0,0,1,.4,1.34h-1.48a1.32,1.32,0,0,0-.42-1,1.74,1.74,0,0,0-1.2-.37,1.81,1.81,0,0,0-1.13.31,1,1,0,0,0-.4.86.93.93,0,0,0,.43.78,5,5,0,0,0,1.43.61,6.54,6.54,0,0,1,1.6.67,2.54,2.54,0,0,1,.88.87,2.26,2.26,0,0,1,.28,1.15,2,2,0,0,1-.82,1.7,3.55,3.55,0,0,1-2.22.63,4.17,4.17,0,0,1-1.7-.34,2.86,2.86,0,0,1-1.21-.95,2.36,2.36,0,0,1-.43-1.41h1.48a1.38,1.38,0,0,0,.48,1.13,2.1,2.1,0,0,0,1.38.4,1.83,1.83,0,0,0,1.16-.31A1,1,0,0,0,144.54,340.19Z"/>
<path class="cls-6" d="M151.21,342.38a2.2,2.2,0,0,1-.16-.59,2.4,2.4,0,0,1-3.22.16,1.74,1.74,0,0,1-.6-1.35,1.8,1.8,0,0,1,.75-1.56,3.65,3.65,0,0,1,2.15-.54H151v-.42a1.11,1.11,0,0,0-.28-.79,1.09,1.09,0,0,0-.84-.3,1.25,1.25,0,0,0-.8.24.75.75,0,0,0-.31.62h-1.42a1.58,1.58,0,0,1,.35-1,2.3,2.3,0,0,1,.94-.71,3.3,3.3,0,0,1,1.33-.26,2.66,2.66,0,0,1,1.78.56,2,2,0,0,1,.68,1.57v2.86a3.24,3.24,0,0,0,.24,1.37v.1Zm-1.56-1a1.62,1.62,0,0,0,.79-.21,1.37,1.37,0,0,0,.56-.55v-1.2h-.77a2.1,2.1,0,0,0-1.19.28.89.89,0,0,0-.4.78.83.83,0,0,0,.27.65A1.06,1.06,0,0,0,149.65,341.36Z"/>
<path class="cls-6" d="M157.48,337.34a3.52,3.52,0,0,0-.58,0,1.31,1.31,0,0,0-1.32.75v4.34h-1.42V336h1.36l0,.71a1.6,1.6,0,0,1,1.43-.83,1.33,1.33,0,0,1,.5.08Z"/>
<path class="cls-6" d="M159.94,336l0,.73a2.28,2.28,0,0,1,1.85-.85q2,0,2,2.27v4.19h-1.42v-4.11a1.31,1.31,0,0,0-.26-.89,1.1,1.1,0,0,0-.85-.29,1.37,1.37,0,0,0-1.28.78v4.51H158.6V336Z"/>
<path class="cls-6" d="M165.53,334.39a.76.76,0,0,1,.21-.55.78.78,0,0,1,.59-.22.79.79,0,0,1,.6.22.76.76,0,0,1,.21.55.74.74,0,0,1-.21.54.8.8,0,0,1-.6.22.79.79,0,0,1-.59-.22A.75.75,0,0,1,165.53,334.39Zm1.51,8h-1.42V336H167Z"/>
<path class="cls-6" d="M172.62,342.38a2.2,2.2,0,0,1-.16-.59,2.4,2.4,0,0,1-3.22.16,1.74,1.74,0,0,1-.6-1.35,1.8,1.8,0,0,1,.75-1.56,3.65,3.65,0,0,1,2.15-.54h.87v-.42a1.11,1.11,0,0,0-.28-.79,1.09,1.09,0,0,0-.84-.3,1.25,1.25,0,0,0-.8.24.75.75,0,0,0-.31.62h-1.42a1.58,1.58,0,0,1,.35-1,2.3,2.3,0,0,1,.94-.71,3.3,3.3,0,0,1,1.33-.26,2.66,2.66,0,0,1,1.78.56,2,2,0,0,1,.68,1.57v2.86a3.24,3.24,0,0,0,.24,1.37v.1Zm-1.56-1a1.62,1.62,0,0,0,.79-.21,1.37,1.37,0,0,0,.56-.55v-1.2h-.77a2.1,2.1,0,0,0-1.19.28.89.89,0,0,0-.4.78.83.83,0,0,0,.27.65A1.06,1.06,0,0,0,171.06,341.36Z"/>
<path class="cls-6" d="M179.53,339.33h-3.08v-1.15h3.08Z"/>
<path class="cls-6" d="M183.53,341.19h3.87v1.2H182v-8.53h1.48Z"/>
<path class="cls-6" d="M192.43,342.38a2.2,2.2,0,0,1-.16-.59A2.4,2.4,0,0,1,189,342a1.74,1.74,0,0,1-.6-1.35,1.8,1.8,0,0,1,.75-1.56,3.65,3.65,0,0,1,2.15-.54h.87v-.42a1.11,1.11,0,0,0-.28-.79,1.09,1.09,0,0,0-.84-.3,1.25,1.25,0,0,0-.8.24.75.75,0,0,0-.31.62h-1.42a1.58,1.58,0,0,1,.35-1,2.3,2.3,0,0,1,.94-.71,3.3,3.3,0,0,1,1.33-.26,2.66,2.66,0,0,1,1.78.56,2,2,0,0,1,.68,1.57v2.86a3.24,3.24,0,0,0,.24,1.37v.1Zm-1.56-1a1.62,1.62,0,0,0,.79-.21,1.37,1.37,0,0,0,.56-.55v-1.2h-.77a2.1,2.1,0,0,0-1.19.28.89.89,0,0,0-.4.78.83.83,0,0,0,.27.65A1.06,1.06,0,0,0,190.86,341.36Z"/>
<path class="cls-6" d="M196.71,336l0,.66a2.28,2.28,0,0,1,1.83-.78,1.75,1.75,0,0,1,1.74,1,2.25,2.25,0,0,1,1.95-1,2,2,0,0,1,1.56.58,2.55,2.55,0,0,1,.52,1.71v4.17h-1.42v-4.12a1.26,1.26,0,0,0-.26-.88,1.15,1.15,0,0,0-.87-.28,1.19,1.19,0,0,0-.79.26,1.38,1.38,0,0,0-.43.68v4.35h-1.42v-4.17a1,1,0,0,0-1.14-1.12,1.25,1.25,0,0,0-1.21.7v4.59h-1.42V336Z"/>
<path class="cls-6" d="M211.61,339.28a3.81,3.81,0,0,1-.66,2.35,2.15,2.15,0,0,1-1.81.87,2.07,2.07,0,0,1-1.73-.8l-.07.69H206v-9h1.42v3.27a2.06,2.06,0,0,1,1.66-.73,2.17,2.17,0,0,1,1.82.86,3.87,3.87,0,0,1,.66,2.41Zm-1.42-.12a2.69,2.69,0,0,0-.36-1.55,1.21,1.21,0,0,0-1.05-.52,1.32,1.32,0,0,0-1.3.81v2.61a1.34,1.34,0,0,0,1.31.83,1.2,1.2,0,0,0,1-.5,2.61,2.61,0,0,0,.38-1.51Z"/>
<path class="cls-6" d="M214.83,334.5V336H216v1.05h-1.12v3.54a.78.78,0,0,0,.14.52.67.67,0,0,0,.51.16,2.19,2.19,0,0,0,.5-.06v1.1a3.51,3.51,0,0,1-.94.13q-1.64,0-1.64-1.81V337.1h-1V336h1V334.5Z"/>
<path class="cls-6" d="M216.83,339.15a3.74,3.74,0,0,1,.37-1.68,2.7,2.7,0,0,1,1-1.15,2.92,2.92,0,0,1,1.54-.4,2.77,2.77,0,0,1,2.08.83,3.25,3.25,0,0,1,.86,2.19v.33a3.77,3.77,0,0,1-.36,1.68,2.66,2.66,0,0,1-1,1.14,2.94,2.94,0,0,1-1.55.4,2.75,2.75,0,0,1-2.15-.89,3.42,3.42,0,0,1-.81-2.38Zm1.42.12a2.55,2.55,0,0,0,.4,1.53,1.31,1.31,0,0,0,1.13.55,1.3,1.3,0,0,0,1.12-.56,2.82,2.82,0,0,0,.4-1.65,2.52,2.52,0,0,0-.41-1.52,1.39,1.39,0,0,0-2.23,0A2.77,2.77,0,0,0,218.26,339.28Z"/>
<path class="cls-6" d="M225.5,336l0,.73a2.28,2.28,0,0,1,1.85-.85q2,0,2,2.27v4.19H228v-4.11a1.31,1.31,0,0,0-.26-.89,1.1,1.1,0,0,0-.85-.29,1.37,1.37,0,0,0-1.28.78v4.51h-1.42V336Z"/>
<path class="cls-6" d="M85.56,456.57l1.31-6.42h1.47l-2,8.53H85l-1.62-6.23-1.66,6.23H80.25l-2-8.53h1.47l1.32,6.41,1.63-6.41h1.24Z"/>
<path class="cls-6" d="M89.53,450.69a.76.76,0,0,1,.21-.55.78.78,0,0,1,.59-.22.79.79,0,0,1,.6.22.76.76,0,0,1,.21.55.74.74,0,0,1-.21.54.8.8,0,0,1-.6.22.79.79,0,0,1-.59-.22A.75.75,0,0,1,89.53,450.69Zm1.51,8H89.62v-6.34H91Z"/>
<path class="cls-6" d="M94.15,452.34l0,.73a2.28,2.28,0,0,1,1.85-.85q2,0,2,2.27v4.19H96.63v-4.11a1.31,1.31,0,0,0-.26-.89,1.1,1.1,0,0,0-.85-.29,1.37,1.37,0,0,0-1.28.78v4.51H92.81v-6.34Z"/>
<path class="cls-6" d="M99.48,455.46a3.77,3.77,0,0,1,.68-2.35,2.18,2.18,0,0,1,1.82-.89,2.07,2.07,0,0,1,1.63.7v-3.25H105v9h-1.29l-.07-.66a2.1,2.1,0,0,1-1.71.77,2.17,2.17,0,0,1-1.8-.9A3.91,3.91,0,0,1,99.48,455.46Zm1.42.12a2.64,2.64,0,0,0,.37,1.51,1.21,1.21,0,0,0,1.06.54,1.34,1.34,0,0,0,1.28-.78v-2.71a1.32,1.32,0,0,0-1.27-.76,1.22,1.22,0,0,0-1.07.55A2.94,2.94,0,0,0,100.9,455.59Z"/>
<path class="cls-6" d="M110.31,457a.65.65,0,0,0-.31-.58,3.33,3.33,0,0,0-1-.35,5.35,5.35,0,0,1-1.21-.39,1.62,1.62,0,0,1-1.07-1.49,1.69,1.69,0,0,1,.69-1.37,2.73,2.73,0,0,1,1.76-.55,2.84,2.84,0,0,1,1.84.56,1.78,1.78,0,0,1,.7,1.46h-1.42a.88.88,0,0,0-.3-.68,1.17,1.17,0,0,0-.81-.27,1.26,1.26,0,0,0-.76.22.68.68,0,0,0-.3.58.58.58,0,0,0,.28.51,3.79,3.79,0,0,0,1.11.37,5.27,5.27,0,0,1,1.32.44,1.86,1.86,0,0,1,.71.61,1.56,1.56,0,0,1,.23.87,1.65,1.65,0,0,1-.71,1.39,3,3,0,0,1-1.86.53,3.28,3.28,0,0,1-1.39-.28,2.29,2.29,0,0,1-.95-.77,1.83,1.83,0,0,1-.34-1.06h1.38a1,1,0,0,0,.38.78,1.48,1.48,0,0,0,.93.27,1.44,1.44,0,0,0,.86-.21A.66.66,0,0,0,110.31,457Z"/>
<path class="cls-6" d="M112.92,455.45a3.74,3.74,0,0,1,.37-1.68,2.7,2.7,0,0,1,1-1.15,2.92,2.92,0,0,1,1.54-.4,2.77,2.77,0,0,1,2.08.83,3.25,3.25,0,0,1,.86,2.19v.33a3.77,3.77,0,0,1-.36,1.68,2.66,2.66,0,0,1-1,1.14,2.94,2.94,0,0,1-1.55.4,2.75,2.75,0,0,1-2.15-.89,3.42,3.42,0,0,1-.81-2.38Zm1.42.12a2.55,2.55,0,0,0,.4,1.53,1.31,1.31,0,0,0,1.13.55,1.3,1.3,0,0,0,1.12-.56,2.82,2.82,0,0,0,.4-1.65,2.52,2.52,0,0,0-.41-1.52,1.39,1.39,0,0,0-2.23,0A2.77,2.77,0,0,0,114.35,455.58Z"/>
<path class="cls-6" d="M123.58,453.64a3.52,3.52,0,0,0-.58,0,1.31,1.31,0,0,0-1.32.75v4.34h-1.42v-6.34h1.36l0,.71a1.6,1.6,0,0,1,1.43-.83,1.33,1.33,0,0,1,.5.08Z"/>
<path class="cls-6" d="M128.68,455.63h-3.08v-1.15h3.08Z"/>
<path class="cls-6" d="M136.18,454.87h-3.5v2.61h4.1v1.2H131.2v-8.53h5.54v1.2h-4.05v2.36h3.5Z"/>
<path class="cls-6" d="M141.64,457a.65.65,0,0,0-.31-.58,3.33,3.33,0,0,0-1-.35,5.35,5.35,0,0,1-1.21-.39,1.62,1.62,0,0,1-1.07-1.49,1.69,1.69,0,0,1,.69-1.37,2.73,2.73,0,0,1,1.76-.55,2.84,2.84,0,0,1,1.84.56,1.78,1.78,0,0,1,.7,1.46h-1.42a.88.88,0,0,0-.3-.68,1.17,1.17,0,0,0-.81-.27,1.26,1.26,0,0,0-.76.22.68.68,0,0,0-.3.58.58.58,0,0,0,.28.51,3.79,3.79,0,0,0,1.11.37,5.27,5.27,0,0,1,1.32.44,1.86,1.86,0,0,1,.71.61,1.56,1.56,0,0,1,.23.87,1.65,1.65,0,0,1-.71,1.39,3,3,0,0,1-1.86.53,3.28,3.28,0,0,1-1.39-.28,2.29,2.29,0,0,1-.95-.77,1.83,1.83,0,0,1-.34-1.06h1.38a1,1,0,0,0,.38.78,1.48,1.48,0,0,0,.93.27,1.44,1.44,0,0,0,.86-.21A.66.66,0,0,0,141.64,457Z"/>
<path class="cls-6" d="M148.07,457a.65.65,0,0,0-.31-.58,3.33,3.33,0,0,0-1-.35,5.35,5.35,0,0,1-1.21-.39,1.62,1.62,0,0,1-1.07-1.49,1.69,1.69,0,0,1,.69-1.37,2.73,2.73,0,0,1,1.76-.55,2.84,2.84,0,0,1,1.84.56,1.78,1.78,0,0,1,.7,1.46H148a.88.88,0,0,0-.3-.68,1.17,1.17,0,0,0-.81-.27,1.26,1.26,0,0,0-.76.22.68.68,0,0,0-.3.58.58.58,0,0,0,.28.51,3.79,3.79,0,0,0,1.11.37,5.27,5.27,0,0,1,1.32.44,1.86,1.86,0,0,1,.71.61,1.56,1.56,0,0,1,.23.87,1.65,1.65,0,0,1-.71,1.39,3,3,0,0,1-1.86.53,3.28,3.28,0,0,1-1.39-.28,2.29,2.29,0,0,1-.95-.77,1.83,1.83,0,0,1-.34-1.06h1.38a1,1,0,0,0,.38.78,1.48,1.48,0,0,0,.93.27,1.44,1.44,0,0,0,.86-.21A.66.66,0,0,0,148.07,457Z"/>
<path class="cls-6" d="M153.74,458.8a3,3,0,0,1-2.19-.85,3.09,3.09,0,0,1-.84-2.27v-.18a3.8,3.8,0,0,1,.37-1.7,2.79,2.79,0,0,1,1-1.16,2.72,2.72,0,0,1,1.48-.42,2.49,2.49,0,0,1,2,.83,3.49,3.49,0,0,1,.71,2.34V456h-4.14a1.9,1.9,0,0,0,.52,1.24,1.57,1.57,0,0,0,1.16.46,1.93,1.93,0,0,0,1.59-.79l.77.73a2.56,2.56,0,0,1-1,.88A3.18,3.18,0,0,1,153.74,458.8Zm-.17-5.43a1.2,1.2,0,0,0-.95.41,2.13,2.13,0,0,0-.46,1.14h2.71v-.11a1.73,1.73,0,0,0-.38-1.08A1.19,1.19,0,0,0,153.57,453.37Z"/>
<path class="cls-6" d="M159.91,454.43l1.21-2.09h1.58l-1.94,3.12,2,3.22h-1.57l-1.27-2.17-1.26,2.17h-1.58l2-3.22-1.93-3.12h1.57Z"/>
<path class="cls-6" d="M406.31,337.57l1.31-6.42h1.47l-2,8.53h-1.42l-1.62-6.23-1.66,6.23H401l-2-8.53h1.47l1.32,6.41,1.63-6.41h1.24Z"/>
<path class="cls-6" d="M409.83,336.45a3.74,3.74,0,0,1,.37-1.68,2.7,2.7,0,0,1,1-1.15,2.92,2.92,0,0,1,1.54-.4,2.77,2.77,0,0,1,2.08.83,3.25,3.25,0,0,1,.86,2.19v.33a3.77,3.77,0,0,1-.36,1.68,2.66,2.66,0,0,1-1,1.14,2.94,2.94,0,0,1-1.55.4,2.75,2.75,0,0,1-2.15-.89,3.42,3.42,0,0,1-.81-2.38Zm1.42.12a2.55,2.55,0,0,0,.4,1.53,1.31,1.31,0,0,0,1.13.55,1.3,1.3,0,0,0,1.12-.56,2.82,2.82,0,0,0,.4-1.65,2.52,2.52,0,0,0-.41-1.52,1.39,1.39,0,0,0-2.23,0A2.77,2.77,0,0,0,411.25,336.57Z"/>
<path class="cls-6" d="M416.9,336.45a3.74,3.74,0,0,1,.37-1.68,2.7,2.7,0,0,1,1-1.15,2.92,2.92,0,0,1,1.54-.4,2.77,2.77,0,0,1,2.08.83,3.25,3.25,0,0,1,.86,2.19v.33a3.77,3.77,0,0,1-.36,1.68,2.66,2.66,0,0,1-1,1.14,2.94,2.94,0,0,1-1.55.4,2.75,2.75,0,0,1-2.15-.89,3.42,3.42,0,0,1-.81-2.38Zm1.42.12a2.55,2.55,0,0,0,.4,1.53,1.31,1.31,0,0,0,1.13.55,1.3,1.3,0,0,0,1.12-.56,2.82,2.82,0,0,0,.4-1.65,2.52,2.52,0,0,0-.41-1.52,1.39,1.39,0,0,0-2.23,0A2.77,2.77,0,0,0,418.33,336.57Z"/>
<path class="cls-6" d="M424,336.46a3.77,3.77,0,0,1,.68-2.35,2.18,2.18,0,0,1,1.82-.89,2.07,2.07,0,0,1,1.63.7v-3.25h1.42v9h-1.29l-.07-.66a2.1,2.1,0,0,1-1.71.77,2.17,2.17,0,0,1-1.8-.9A3.91,3.91,0,0,1,424,336.46Zm1.42.12a2.64,2.64,0,0,0,.37,1.51,1.21,1.21,0,0,0,1.06.54,1.34,1.34,0,0,0,1.28-.78v-2.71a1.32,1.32,0,0,0-1.27-.76,1.22,1.22,0,0,0-1.07.55A2.94,2.94,0,0,0,425.4,336.58Z"/>
<path class="cls-6" d="M434.81,338a.65.65,0,0,0-.31-.58,3.33,3.33,0,0,0-1-.35,5.35,5.35,0,0,1-1.21-.39,1.62,1.62,0,0,1-1.07-1.49,1.69,1.69,0,0,1,.69-1.37,2.73,2.73,0,0,1,1.76-.55,2.84,2.84,0,0,1,1.84.56,1.78,1.78,0,0,1,.7,1.46h-1.42a.88.88,0,0,0-.3-.68,1.17,1.17,0,0,0-.81-.27,1.26,1.26,0,0,0-.76.22.68.68,0,0,0-.3.58.58.58,0,0,0,.28.51A3.79,3.79,0,0,0,434,336a5.27,5.27,0,0,1,1.32.44,1.86,1.86,0,0,1,.71.61,1.56,1.56,0,0,1,.23.87,1.65,1.65,0,0,1-.71,1.39,3,3,0,0,1-1.86.53,3.28,3.28,0,0,1-1.39-.28,2.29,2.29,0,0,1-.95-.77,1.83,1.83,0,0,1-.34-1.06h1.38a1,1,0,0,0,.38.78,1.48,1.48,0,0,0,.93.27,1.44,1.44,0,0,0,.86-.21A.66.66,0,0,0,434.81,338Z"/>
<path class="cls-6" d="M439.47,331.79v1.54h1.12v1.05h-1.12v3.54a.78.78,0,0,0,.14.52.67.67,0,0,0,.51.16,2.19,2.19,0,0,0,.5-.06v1.1a3.51,3.51,0,0,1-.94.13q-1.64,0-1.64-1.81v-3.59h-1v-1.05h1v-1.54Z"/>
<path class="cls-6" d="M441.48,336.45a3.74,3.74,0,0,1,.37-1.68,2.7,2.7,0,0,1,1-1.15,2.92,2.92,0,0,1,1.54-.4,2.77,2.77,0,0,1,2.08.83,3.25,3.25,0,0,1,.86,2.19v.33a3.77,3.77,0,0,1-.36,1.68,2.66,2.66,0,0,1-1,1.14,2.94,2.94,0,0,1-1.55.4,2.75,2.75,0,0,1-2.15-.89,3.42,3.42,0,0,1-.81-2.38Zm1.42.12a2.55,2.55,0,0,0,.4,1.53,1.31,1.31,0,0,0,1.13.55,1.3,1.3,0,0,0,1.12-.56,2.82,2.82,0,0,0,.4-1.65,2.52,2.52,0,0,0-.41-1.52,1.39,1.39,0,0,0-2.23,0A2.77,2.77,0,0,0,442.9,336.57Z"/>
<path class="cls-6" d="M451.42,338.66a1.29,1.29,0,0,0,.88-.31,1.06,1.06,0,0,0,.38-.77H454a2.09,2.09,0,0,1-.37,1.1,2.42,2.42,0,0,1-.94.81,2.79,2.79,0,0,1-1.28.3,2.7,2.7,0,0,1-2.11-.86,3.42,3.42,0,0,1-.78-2.38v-.15a3.36,3.36,0,0,1,.77-2.32,2.68,2.68,0,0,1,2.11-.87,2.6,2.6,0,0,1,1.84.66,2.36,2.36,0,0,1,.75,1.73h-1.34a1.3,1.3,0,0,0-.37-.9,1.2,1.2,0,0,0-.89-.35,1.25,1.25,0,0,0-1.07.5,2.56,2.56,0,0,0-.38,1.52v.23a2.6,2.6,0,0,0,.37,1.54A1.25,1.25,0,0,0,451.42,338.66Z"/>
<path class="cls-6" d="M457.4,337l-.63.65v2.07h-1.42v-9h1.42v5.19l.45-.56,1.75-2h1.71L458.31,336l2.61,3.7h-1.65Z"/>
<path class="cls-6" d="M465.8,336.62h-3.08v-1.15h3.08Z"/>
<path class="cls-6" d="M469.88,339.67H468.4v-8.53h1.48Z"/>
<path class="cls-6" d="M473.12,333.33l0,.73a2.28,2.28,0,0,1,1.85-.85q2,0,2,2.27v4.19H475.6v-4.11a1.31,1.31,0,0,0-.26-.89,1.1,1.1,0,0,0-.85-.29,1.37,1.37,0,0,0-1.28.78v4.51h-1.42v-6.34Z"/>
<path class="cls-6" d="M478.47,336.46a3.71,3.71,0,0,1,.69-2.36,2.23,2.23,0,0,1,1.84-.88,2.09,2.09,0,0,1,1.71.76l.06-.64h1.28v6.15a2.55,2.55,0,0,1-.78,2,3,3,0,0,1-2.09.72,3.38,3.38,0,0,1-1.36-.29,2.42,2.42,0,0,1-1-.76l.67-.86a2,2,0,0,0,1.62.78,1.57,1.57,0,0,0,1.12-.38,1.47,1.47,0,0,0,.41-1.13v-.43a2.1,2.1,0,0,1-1.64.69,2.22,2.22,0,0,1-1.82-.88A3.83,3.83,0,0,1,478.47,336.46Zm1.42.12a2.55,2.55,0,0,0,.39,1.5,1.25,1.25,0,0,0,1.08.55,1.37,1.37,0,0,0,1.28-.74V335.1a1.35,1.35,0,0,0-1.27-.72,1.26,1.26,0,0,0-1.09.56A2.86,2.86,0,0,0,479.89,336.58Z"/>
<path class="cls-6" d="M488.55,339.79a3,3,0,0,1-2.19-.85,3.09,3.09,0,0,1-.84-2.27v-.18a3.8,3.8,0,0,1,.37-1.7,2.79,2.79,0,0,1,1-1.16,2.72,2.72,0,0,1,1.48-.42,2.49,2.49,0,0,1,2,.83,3.49,3.49,0,0,1,.71,2.34V337H487a1.9,1.9,0,0,0,.52,1.24,1.57,1.57,0,0,0,1.16.46,1.93,1.93,0,0,0,1.59-.79l.77.73a2.56,2.56,0,0,1-1,.88A3.18,3.18,0,0,1,488.55,339.79Zm-.17-5.43a1.2,1.2,0,0,0-.95.41,2.13,2.13,0,0,0-.46,1.14h2.71v-.11a1.73,1.73,0,0,0-.38-1.08A1.19,1.19,0,0,0,488.38,334.36Z"/>
<path class="cls-6" d="M495.76,334.64a3.52,3.52,0,0,0-.58,0,1.31,1.31,0,0,0-1.32.75v4.34h-1.42v-6.34h1.36l0,.71a1.6,1.6,0,0,1,1.43-.83,1.33,1.33,0,0,1,.5.08Z"/>
<path class="cls-6" d="M500.45,338a.65.65,0,0,0-.31-.58,3.33,3.33,0,0,0-1-.35,5.35,5.35,0,0,1-1.21-.39,1.62,1.62,0,0,1-1.07-1.49,1.69,1.69,0,0,1,.69-1.37,2.73,2.73,0,0,1,1.76-.55,2.84,2.84,0,0,1,1.84.56,1.78,1.78,0,0,1,.7,1.46h-1.42a.88.88,0,0,0-.3-.68,1.17,1.17,0,0,0-.81-.27,1.26,1.26,0,0,0-.76.22.68.68,0,0,0-.3.58.58.58,0,0,0,.28.51,3.79,3.79,0,0,0,1.11.37,5.27,5.27,0,0,1,1.32.44,1.86,1.86,0,0,1,.71.61,1.56,1.56,0,0,1,.23.87,1.65,1.65,0,0,1-.71,1.39,3,3,0,0,1-1.86.53,3.28,3.28,0,0,1-1.39-.28,2.29,2.29,0,0,1-.95-.77,1.83,1.83,0,0,1-.34-1.06H498a1,1,0,0,0,.38.78,1.48,1.48,0,0,0,.93.27,1.44,1.44,0,0,0,.86-.21A.66.66,0,0,0,500.45,338Z"/>
<path class="cls-6" d="M503.06,336.45a3.74,3.74,0,0,1,.37-1.68,2.7,2.7,0,0,1,1-1.15,2.92,2.92,0,0,1,1.54-.4,2.77,2.77,0,0,1,2.08.83,3.25,3.25,0,0,1,.86,2.19v.33a3.77,3.77,0,0,1-.36,1.68,2.66,2.66,0,0,1-1,1.14,2.94,2.94,0,0,1-1.55.4,2.75,2.75,0,0,1-2.15-.89,3.42,3.42,0,0,1-.81-2.38Zm1.42.12a2.55,2.55,0,0,0,.4,1.53,1.31,1.31,0,0,0,1.13.55,1.3,1.3,0,0,0,1.12-.56,2.82,2.82,0,0,0,.4-1.65,2.52,2.52,0,0,0-.41-1.52,1.39,1.39,0,0,0-2.23,0A2.77,2.77,0,0,0,504.49,336.57Z"/>
<path class="cls-6" d="M511.92,339.67h-1.42v-9h1.42Z"/>
<path class="cls-6" d="M515.22,339.67H513.8v-9h1.42Z"/>
<path class="cls-6" d="M404.17,369.43h-2.66v7.34H400v-7.34H397.4v-1.2h6.77Z"/>
<path class="cls-6" d="M405.39,368.78a.76.76,0,0,1,.21-.55.78.78,0,0,1,.59-.22.79.79,0,0,1,.6.22.76.76,0,0,1,.21.55.74.74,0,0,1-.21.54.8.8,0,0,1-.6.22.79.79,0,0,1-.59-.22A.75.75,0,0,1,405.39,368.78Zm1.51,8h-1.42v-6.34h1.42Z"/>
<path class="cls-6" d="M410.21,376.77h-1.42v-9h1.42Z"/>
<path class="cls-6" d="M413.51,376.77h-1.42v-9h1.42Z"/>
<path class="cls-6" d="M418.86,375a.65.65,0,0,0-.31-.58,3.33,3.33,0,0,0-1-.35,5.35,5.35,0,0,1-1.21-.39,1.62,1.62,0,0,1-1.07-1.49,1.69,1.69,0,0,1,.69-1.37,2.73,2.73,0,0,1,1.76-.55,2.84,2.84,0,0,1,1.84.56,1.78,1.78,0,0,1,.7,1.46h-1.42a.88.88,0,0,0-.3-.68,1.17,1.17,0,0,0-.81-.27,1.26,1.26,0,0,0-.76.22.68.68,0,0,0-.3.58.58.58,0,0,0,.28.51,3.79,3.79,0,0,0,1.11.37,5.27,5.27,0,0,1,1.32.44,1.86,1.86,0,0,1,.71.61,1.56,1.56,0,0,1,.23.87,1.65,1.65,0,0,1-.71,1.39,3,3,0,0,1-1.86.53,3.28,3.28,0,0,1-1.39-.28,2.29,2.29,0,0,1-.95-.77,1.83,1.83,0,0,1-.34-1.06h1.38a1,1,0,0,0,.38.78,1.48,1.48,0,0,0,.93.27,1.44,1.44,0,0,0,.86-.21A.66.66,0,0,0,418.86,375Z"/>
<path class="cls-6" d="M421.47,373.54a3.74,3.74,0,0,1,.37-1.68,2.7,2.7,0,0,1,1-1.15,2.92,2.92,0,0,1,1.54-.4,2.77,2.77,0,0,1,2.08.83,3.25,3.25,0,0,1,.86,2.19v.33a3.77,3.77,0,0,1-.36,1.68,2.66,2.66,0,0,1-1,1.14,2.94,2.94,0,0,1-1.55.4,2.75,2.75,0,0,1-2.15-.89,3.42,3.42,0,0,1-.81-2.38Zm1.42.12a2.55,2.55,0,0,0,.4,1.53,1.31,1.31,0,0,0,1.13.55,1.3,1.3,0,0,0,1.12-.56,2.82,2.82,0,0,0,.4-1.65,2.52,2.52,0,0,0-.41-1.52,1.39,1.39,0,0,0-2.23,0A2.77,2.77,0,0,0,422.89,373.66Z"/>
<path class="cls-6" d="M430.13,370.43l0,.73a2.28,2.28,0,0,1,1.85-.85q2,0,2,2.27v4.19h-1.42v-4.11a1.31,1.31,0,0,0-.26-.89,1.1,1.1,0,0,0-.85-.29,1.37,1.37,0,0,0-1.28.78v4.51h-1.42v-6.34Z"/>
<path class="cls-6" d="M441.29,373.66a3.81,3.81,0,0,1-.66,2.35,2.15,2.15,0,0,1-1.81.87,2.07,2.07,0,0,1-1.73-.8l-.07.69h-1.29v-9h1.42V371a2.06,2.06,0,0,1,1.66-.73,2.17,2.17,0,0,1,1.82.86,3.87,3.87,0,0,1,.66,2.41Zm-1.42-.12a2.69,2.69,0,0,0-.36-1.55,1.21,1.21,0,0,0-1.05-.52,1.32,1.32,0,0,0-1.3.81v2.61a1.34,1.34,0,0,0,1.31.83,1.2,1.2,0,0,0,1-.5,2.61,2.61,0,0,0,.38-1.51Z"/>
<path class="cls-6" d="M446.56,376.15a2.21,2.21,0,0,1-1.78.74,2,2,0,0,1-1.56-.6,2.57,2.57,0,0,1-.53-1.75v-4.11h1.42v4.09q0,1.21,1,1.21a1.41,1.41,0,0,0,1.4-.74v-4.55h1.42v6.34h-1.34Z"/>
<path class="cls-6" d="M452.95,371.73a3.52,3.52,0,0,0-.58,0,1.31,1.31,0,0,0-1.32.75v4.34h-1.42v-6.34H451l0,.71a1.6,1.6,0,0,1,1.43-.83,1.33,1.33,0,0,1,.5.08Z"/>
<path class="cls-6" d="M453.73,373.55a3.71,3.71,0,0,1,.69-2.36,2.23,2.23,0,0,1,1.84-.88,2.09,2.09,0,0,1,1.71.76l.06-.64h1.28v6.15a2.55,2.55,0,0,1-.78,2,3,3,0,0,1-2.09.72,3.38,3.38,0,0,1-1.36-.29,2.42,2.42,0,0,1-1-.76l.67-.86a2,2,0,0,0,1.62.78,1.57,1.57,0,0,0,1.12-.38,1.47,1.47,0,0,0,.41-1.13v-.43a2.1,2.1,0,0,1-1.64.69,2.22,2.22,0,0,1-1.82-.88A3.83,3.83,0,0,1,453.73,373.55Zm1.42.12a2.55,2.55,0,0,0,.39,1.5,1.25,1.25,0,0,0,1.08.55,1.37,1.37,0,0,0,1.28-.74V372.2a1.35,1.35,0,0,0-1.27-.72,1.26,1.26,0,0,0-1.09.56A2.86,2.86,0,0,0,455.14,373.67Z"/></svg>
