<svg xmlns="http://www.w3.org/2000/svg" xmlns:xlink="http://www.w3.org/1999/xlink" version="1.1" id="Layer_1" x="0px" y="0px" viewBox="0 0 360 204" enable-background="new 0 0 360 204" xml:space="preserve">
<style>
#windsor_svg {
    -webkit-transition: 0.3s all;
    -o-transition: 0.3s all;
    transition: 0.3s all;
    padding: 0;
    margin: 0 auto;
    fill: rgba(215, 215, 215, 1);
}
</style>
<path fill="#CCCCCC" d="M95.932,160.134c0-0.304,0.069-0.524,0.09-0.747c0.018-0.15,0.016-0.304-0.043-0.48  c-0.152-0.145-0.333-0.182-0.541-0.238c-0.365,0-0.847-0.105-1.229,0.009c-0.047,0-0.087,0.058-0.116,0.058  c-0.142,0.039-0.217,0.135-0.341,0.229c-0.144,0-0.304,0.085-0.41,0.189c-0.005,0.011-0.015,0.021-0.021,0.031  c-0.124,0.146-0.366-0.033-0.483,0.084c-0.054,0.053-0.11,0.131-0.171,0.195c-0.072,0.076-0.153,0.135-0.247,0.117  c-0.2,0-0.306,0.182-0.517,0.248c-0.124,0.027-0.207-0.01-0.332,0.037c-0.039,0.029-0.011,0.097-0.039,0.124  c-0.065,0.077-0.211,0.135-0.246,0.249c0,0.228-0.401,0.343-0.543,0.199c-0.237-0.113-0.175-0.371-0.362-0.572  c-0.106-0.104-0.285-0.01-0.449-0.01c-0.141,0.039-0.305-0.076-0.379,0.076c-0.028,0.029-0.058,0.153-0.125,0.153  c-0.044,0-0.091,0.004-0.14,0.008c-0.099,0.009-0.195,0.009-0.259-0.055c-0.125-0.039-0.125-0.211-0.258-0.259  c-0.219,0-0.335,0.113-0.542,0.113c-0.164-0.037-0.203-0.151-0.278-0.313c-0.114-0.104-0.228-0.228-0.228-0.38  c-0.077-0.307-0.135-0.457-0.334-0.667c-0.066-0.05-0.2-0.077-0.2-0.181c-0.077-0.26,0-0.506-0.218-0.64  c-0.096,0.134-0.04,0.229-0.106,0.371c-0.027,0.028-0.083,0.038-0.104,0.076c-0.084,0.2,0.115,0.506-0.066,0.506  c-0.188,0.065-0.239-0.183-0.41-0.249c-0.238-0.057-0.496-0.047-0.591-0.295c-0.047-0.133-0.152-0.162-0.206-0.305  c-0.07-0.144,0-0.305-0.106-0.408c-0.145-0.096-0.269-0.066-0.335-0.229c-0.142-0.127-0.305-0.183-0.428-0.314  c-0.085-0.039-0.085-0.115-0.152-0.133c-0.323,0-0.619-0.029-0.971-0.029c-0.239,0-0.392-0.171-0.533-0.314  c-0.57-0.182-1.021,0.269-1.64,0.06c-0.003,0-0.003-0.003-0.007-0.003c-0.207-0.004-0.442-0.133-0.734-0.219  c-0.161,0-0.334,0-0.438-0.104c-0.067-0.066-0.01-0.249-0.117-0.286c-0.236-0.065-0.531-0.276-0.625-0.504l-0.953-1.324  c-0.153-0.171-0.306-0.37-0.392-0.655c-0.124-0.125-0.219-0.201-0.267-0.393c-0.163-0.163-0.211-0.286-0.271-0.495  c-0.021-0.059-0.04-0.125-0.062-0.198c-0.009-0.068-0.047-0.136-0.047-0.201c0-0.399-0.173-0.601-0.285-0.914  c-0.04-0.162-0.04-0.268-0.076-0.418c-0.047-0.096-0.077-0.153-0.077-0.238c-0.094-0.268,0.077-0.43,0.077-0.648l-0.194-4.162  l-0.798-16.998L76,128.676c-0.077,0.307-0.308,0.373-0.418,0.676C75.57,129.4,75.33,130,75.607,130v0.248  c0,0.134-0.105,0.238-0.105,0.372c0,0.103,0.039,0.267-0.066,0.267c-0.131,0.049-0.105-0.172-0.236-0.267  c-0.218-0.048-0.401,0.019-0.525-0.183c-0.114-0.123-0.114-0.342-0.313-0.408c-0.344-0.105-0.504-0.105-0.856-0.105  c-0.229-0.219-0.581,0.114-0.745,0.285c-0.142,0.145-0.171,0.486-0.483,0.486c-0.164-0.172,0.199-0.533,0.342-0.686  c0.162-0.314,0.389-0.515,0.389-1.105c-0.418-0.43-0.103-1.123-0.684-1.484c-0.629-0.21-0.781-0.525-1.133-0.99  c-0.134-0.4-0.705-0.238-0.943-0.543c-0.307-0.076-0.69-0.531-0.85-0.969c-0.059-0.162-0.086-0.324-0.063-0.462  c-0.153-0.312-0.241-0.601-0.458-0.837c-0.162-0.066-0.295-0.076-0.334-0.219c-0.475-0.478-0.4-1.049-0.942-1.457  c-0.524-0.184-0.906-1.191-0.562-1.771c0.104-0.209,0.382-0.191,0.445-0.41c0.135-0.428-0.181-0.609-0.294-0.914  c-0.086-0.306,0-0.609,0-0.941c0-0.362,0.294-0.582,0.22-1.029c-0.134-0.438-0.123-1.048-0.391-1.304  c-0.114-0.124-0.286-0.191-0.353-0.392c-0.125-0.19-0.238-0.248-0.238-0.447c0-0.469,0.036-0.762,0.113-1.153l0.507-1.638  l-0.01-0.743c-0.02-0.076-0.164-0.104-0.164-0.181c-0.064-0.258,0-0.477,0-0.705l-0.075-0.522c-0.19,0-0.267,0.209-0.458,0.151  c-0.113,0-0.018-0.342-0.141-0.284c-0.115,0.065-0.133,0.18-0.249,0.198c-0.362,0-0.771,0.152-1.058-0.02  c-0.17-0.066-0.083-0.248-0.15-0.439c-0.688,0.137-1.477,0.229-2.076-0.063c-1.256-0.248-4.258,0.409-4.497-0.733  c-0.571,0-0.771-0.468-1.047-0.819c-0.657-0.667-1.02-0.941-2.142-1.19c-0.639-0.229-1.199-1.275-1.934-1.113  c-0.516,0.144-1.086-0.028-1.258-0.516c-0.221-0.161-0.371,0.115-0.733,0.077c0.077-0.276,0.077-0.466,0.077-0.743  c-0.124-0.885-0.315-1.57-1.049-1.932c-0.38-0.144-0.58-0.287-0.809-0.592c-0.447-0.57-0.951-1.552-1.782-1.696V100L31.78,114.828  l-5.24,4.287L24,136.171c0.229-0.161,0.477-0.219,0.646,0.048c0.104,0.211-0.134,0.525,0.086,0.555  c0.238,0.095,0.342-0.534,0.391-0.678c0-0.172,0.304-0.334,0.457-0.248c0.218,0.182-0.018,0.582,0.141,0.619  c0.344,0.172,0.269-0.515,0.448-0.58c0.136-0.066,0.241,0.037,0.335,0.113c0.181,0.171,0.371,0.4,0.305,0.695  c-0.02,0.104-0.124,0.172-0.151,0.257c-0.066,0.181,0.085,0.305,0.257,0.372c0.208,0.104,0.447-0.067,0.552,0.162  c0.124,0.143,0.133,0.293,0.077,0.543c-0.021,0.142-0.174,0.199-0.193,0.342c-0.036,0.171-0.064,0.295-0.028,0.477  c0.009,0.164,0.184,0.367,0.071,0.482c-0.012,0.012-0.025,0.023-0.043,0.031c-0.398,0.191-0.561-0.182-0.846-0.144  c-0.383,0.097-0.323,0.421-0.582,0.554c-0.189,0.123-0.371,0-0.601,0.104c-0.18,0.095-0.371,0.504-0.448,0.731  c0,0.64,0.592,0.688,1.26,0.857c0.219,0.096,0.312,0.229,0.588,0.333c0.324,0.306,0.698-0.237,1.049,0  c0.191,0.124-0.094,0.667,0.173,0.743c0.409,0.201,1.086-0.076,1.313-0.247c0.303-0.237,0.144-0.61,0.144-1.114  c0-0.162-0.059-0.334,0.104-0.43c0.066-0.02,0.16,0.059,0.181,0.125c0.097,0.248,0.149,0.352,0.227,0.619  c0.059,0.209-0.077,0.428,0.106,0.57c0.323,0.268,0.809,0.065,0.857,0.477c0,0.209-0.725,0.4-0.514,0.658  c0.218,0.285,0.703-0.038,1.112,0.047c0.306,0.104,0.555,0.343,0.745,0.619c0.17,0.219,0.047,1.02,0.312,1.02  c0.145,0,0-0.41,0.122-0.496c0.128-0.123,0.347-0.086,0.478-0.219c0.174-0.189,0.344-0.268,0.562-0.189  c0.219,0.104-0.048,0.36,0.029,0.677c0.066,0.381,0.477,0.532,0.744,0.741c0.171,0.144,0.4,0.238,0.342,0.438  c-0.076,0.181-0.248,0.2-0.307,0.371c0.344,0.104,0.479-0.2,0.706-0.267c0.172-0.01,0.286,0.104,0.429,0.229  c0.229-0.027,0.286-0.258,0.457-0.371c0.22-0.115,0.486,0,0.63-0.172c0.104-0.145,0.269-0.342,0.565-0.333  c0.053,0.002,0.111,0.009,0.177,0.028c0.371,0.143,0.267,0.628,0.618,0.818c0.477,0.238,1.418,0.144,1.934-0.058  c0.229,0.104,0.438-0.026,0.561,0.162c0.087,0.171-0.018,0.334,0.105,0.485c0.067,0.084,0.239,0.084,0.306,0.17  c0.134,0.173,0.21,0.459,0.429,0.373c0.369-0.144,0.544-0.344,0.867-0.59c0.208-0.164,0.484-0.153,0.588-0.516  c0.041-0.133,0.202-0.162,0.23-0.295c0.115-0.42,0.199-0.791,0.027-1.191c0.115-0.162,0.316-0.094,0.518-0.143  c0.247-0.027,0.445-0.162,0.787-0.258c0.144-0.047,0.211-0.238,0.371-0.199c0.098,0.029,0.174,0.182,0.145,0.268  c-0.028,0.094-0.145,0.066-0.2,0.162c-0.085,0.144-0.038,0.266-0.142,0.438c-0.077,0.172-0.354,0.172-0.287,0.324  c0.077,0.229,0.047,0.523,0.18,0.295c0.098-0.172,0.439-0.553,0.516-0.743c0.096-0.275,0.133-0.371,0.257-0.656  c0.087-0.188,0.247-0.228,0.306-0.399c0.019-0.307-0.086-0.619,0.065-0.857c0.087-0.162,0.296-0.371,0.668-0.229  c0.237,0.123,0.324,0.666,0.19,0.887c-0.238,0.295-0.506,0.533-0.781,0.818c-0.143,0.151-0.094,0.398-0.258,0.521  c-0.084,0.066-0.113,0.173-0.143,0.287c-0.028,0.104-0.105,0.104,0,0.123c0.163,0.048,0.266-0.133,0.37-0.266  c0.04-0.096,0.144-0.096,0.172-0.172c0.059-0.16-0.038-0.344,0.077-0.43c0.133-0.066,0.267,0.027,0.372-0.066  c0.056-0.066,0.036-0.181,0.124-0.181c0.181-0.011,0.381,0.133,0.513,0c0.105-0.104,0.039-0.237,0.105-0.372  c0.124-0.199,0.41-0.312,0.188-0.714c-0.131-0.172-0.322-0.249-0.332-0.466c-0.057-0.182-0.094-0.344,0-0.487  c0.03-0.065,0.516-0.342,0.697-0.306c0.17,0.078,0.197,0.238,0.303,0.344c0.238,0.238,0.43,0.344,0.742,0.516  c0.077,0.084,0.105,0.219,0.229,0.258c0.172,0.113,0.372,0.027,0.582,0.076c0.219,0.065,0.304,0.312,0.524,0.344  c0.227,0.056,0.398-0.077,0.693-0.077c0.248,0,0.419-0.076,0.63,0.028c0.171,0.076,0.218,0.285,0.371,0.219  c0.171-0.038,0.171-0.237,0.333-0.285c0.314-0.096,0.4,0.209,0.57,0.268c0.277,0.122,0.418,0.113,0.582,0.36  c0.152,0.237,0.077,0.571,0.182,0.849c0.066,0.189,0.17,0.258,0.266,0.438c0.134,0.343,0.01,0.505,0.105,0.857  c0.028,0.151,0.162,0.229,0.188,0.371c0.04,0.152-0.047,0.258,0,0.399c0.04,0.112,0.153,0.075,0.181,0.2  c0.125,0.408,0.269,0.617,0.554,0.914c0.124,0.188,0.228,0.391,0.532,0.418c0.335,0.066,0.545,0.066,0.887,0  c0.289-0.043,0.387-0.286,0.62-0.414c0.023-0.012,0.043-0.023,0.066-0.032c0.257-0.067,0.599-0.029,0.858,0.028  c0.389,0,0.704,0.275,0.599,0.666c-0.094,0.361-0.419,0.42-0.516,0.742c-0.083,0.276-0.13,0.506,0.03,0.715  c0.076,0.151,0.247,0.134,0.342,0.258c0.144,0.189,0.199,0.353,0.448,0.515c0.161,0.113,0.315,0.095,0.438,0.285  c0.315,0.628-0.296,0.972-0.296,1.533c-0.066,0.268-0.369,0.571-0.199,0.811c0.307,0.38,0.8-0.097,1.191,0.075  c0.085,0.029,0.124,0.123,0.18,0.182c0.104,0.209-0.143,0.379-0.123,0.59c0,0.58-0.314,0.638-0.573,0.961  c-0.103,0.136-0.18,0.543,0,0.668c0.239,0.182,0.517-0.02,0.735-0.104c0.113-0.026,0.266,0.037,0.334-0.039  c0.172-0.123,0.236-0.428,0.446-0.333c0.106,0.049,0.047,0.184,0.144,0.229c0.123,0.076,0.275,0.181,0.229,0.324  c-0.066,0.189-0.41,0.295-0.266,0.666c0.055,0.211,0.352,0.084,0.551,0.113c0.305,0.086,0.506,0.21,0.934,0.145  c0.172,0,0.307-0.039,0.486,0.048c0.143,0.048,0.172,0.19,0.313,0.209c0.294,0.067,0.601-0.144,0.905,0  c0.17,0.114,0.277,0.313,0.582,0.344c0.521,0.065,0.787-0.229,1.332-0.065c0.236,0.057,0.505,0.408,0.856,0.313  c0.097-0.021,0.097-0.134,0.191-0.172c0.247-0.115,0.371-0.076,0.628-0.076c0.182,0.181,0.571,0,0.695,0.181  c0.181,0.285,0.457,0.676,0.791,0.639c0.104-0.18-0.211-0.704,0.296-0.57c0.219,0.104,0.247,0.37,0.247,0.6  c0.42,0.115,0.838,0.027,1.314,0.027c0.114,0.115,0.314,0.307,0.552,0.307c0.108,0.025,0.229,0.034,0.353,0.031  c0.066,0,0.132-0.003,0.199-0.008c0.162-0.01,0.322-0.023,0.477-0.023c0.21,0,0.428,0.02,0.609,0.152  c0,0.17,0.058,0.332,0.171,0.447c0.077,0.238,0.077,0.418,0.249,0.589c0.18,0.237,0.467,0.276,0.638,0.553  c0.238,0.372,0.059,1.029,0.62,1.134c0.188,0.097,0.027,0.334,0.152,0.457c0.047,0.145,0.217,0.066,0.371,0.115  c0.123,0.133,0.188,0.295,0.316,0.504c0,0.078-0.019,0.127-0.012,0.191c0,0.023,0.002,0.047,0.012,0.076  c0.025,0.104,0.166,0.134,0.177,0.238c0.05,0.189,0.106,0.391,0.325,0.455c0.104,0.038,0.171,0.02,0.275,0.038  c-0.037,0.153-0.007,0.269,0.01,0.409c0.02,0.087,0.16,0.096,0.201,0.135c0.012,0.064,0.012,0.155,0.071,0.17  c0.001,0,0.005,0.002,0.005,0.002c-0.087,0.133-0.117,0.295-0.258,0.258c-0.219-0.088-0.172-0.344-0.324-0.496  c-0.105-0.038-0.199-0.01-0.306,0c-0.113,0.123-0.429,0.305-0.323,0.533c0.019,0.104,0.183,0.096,0.248,0.143  c0.059,0.201,0.162,0.307,0.182,0.496c-0.04,0.133,0.084,0.666-0.106,0.724c-0.188,0.134-0.341,0.011-0.551,0.011  c-0.079,0.014-0.175,0.037-0.247,0.021c-0.021-0.006-0.043-0.015-0.057-0.03c-0.106-0.027-0.145-0.181-0.268-0.229  c-0.145-0.039-0.257,0.086-0.409,0c-0.211,0-0.647-0.305-0.647-0.494c-0.068-0.135-0.04-0.258-0.115-0.352  c-0.096-0.078-0.237-0.127-0.371-0.06c-0.171,0.151-0.268,0.344-0.448,0.515c-0.058,0.065-0.19,0.237-0.258,0.172  c-0.171-0.086,0.04-0.305,0.04-0.478c0-0.36-0.105-0.638-0.43-0.638v-0.571c-0.197,0-0.4,0.047-0.504-0.144  c-0.173-0.075-0.345-0.075-0.392-0.237c-0.058-0.065-0.058-0.183-0.058-0.285c-0.024-0.124-0.123-0.171-0.153-0.296  c-0.103-0.229,0-0.409-0.141-0.571c-0.132-0.038-0.267,0-0.399-0.009c-0.183,0.048-0.314-0.066-0.484,0.009  c-0.107,0.066-0.041,0.229,0,0.333c0,0.276,0.113,0.506,0.369,0.62c0.162,0.123,0.277,0.322,0.418,0.468  c0.268,0.266,0.295,0.59,0.439,0.998c0.056,0.2-0.096,0.334-0.038,0.524c0,0.143,0.066,0.237-0.011,0.381  c-0.056,0.134-0.17,0.172-0.236,0.306c-0.125,0.18-0.116,0.284-0.189,0.484c-0.105,0.161-0.373,0.275-0.422,0.533l-0.266,0.152  c0,0.229,0,0.371-0.105,0.601c-0.084,0.096-0.16,0.161-0.199,0.305c-0.045,0.146-0.039,0.292-0.028,0.448  c0.015,0.201,0.035,0.418-0.038,0.667c-0.028,0.104-0.028,0.209-0.028,0.321c0,0.41,0.019,0.802,0.019,1.221  c0,0.209-0.047,0.333,0.01,0.533c0,0.189,0.066,0.324,0.066,0.521c-0.057,0.211-0.123,0.346-0.123,0.641  c-0.062,0.06-0.125,0.109-0.19,0.16c-0.124,0.099-0.251,0.193-0.402,0.344c-0.104,0.104-0.274,0.115-0.38,0.219  c-0.154,0.145-0.237,0.372-0.401,0.533c-0.113,0.115-0.228,0.238-0.417,0.285c-0.189,0.066-0.505,0.049-0.658,0.191  c-0.182,0.171-0.246,0.486-0.246,0.914c0,0.418,0.064,0.658-0.097,0.971c-0.085,0.135-0.181,0.172-0.274,0.258  c-0.029,0.027-0.039,0.086-0.098,0.104c-0.081,0.054-0.171,0.054-0.249,0.019c-0.13-0.059-0.235-0.209-0.235-0.352  c-0.304,0-0.41,0.275-0.523,0.533c-0.135,0.275-0.162,0.381-0.268,0.724c-0.037,0.104,0.029,0.228-0.059,0.306  c-0.029,0.031-0.068,0.055-0.11,0.074c-0.151,0.073-0.34,0.111-0.392,0.336c-0.115,0.074-0.172,0.17-0.191,0.295  c-0.066,0.199-0.218,0.312-0.104,0.629c0.047,0.218-0.02,0.466,0.181,0.521c0.094,0.087,0.21,0.087,0.344,0.145  c0.143,0.142,0.379,0.219,0.608,0.134c0-0.267,0.485-0.324,0.781-0.238c0.218,0.104,0.171,0.457,0.382,0.457  c0-0.285,0.08-0.496,0.275-0.711c0.026-0.029,0.055-0.062,0.086-0.09c0.065-0.123,0.076-0.228,0.189-0.306  c0.22-0.112,0.364-0.16,0.494-0.295c0.27-0.134,0.374-0.199,0.754-0.313c0.209,0,0.334-0.058,0.533-0.058  c0.152,0,0.322-0.076,0.322-0.219c0-0.439,0.269-0.609,0.526-0.81c0-0.104,0.058-0.185,0.129-0.251  c0.06-0.057,0.128-0.107,0.184-0.158c0.117-0.124,0.181-0.268,0.372-0.334c0.066-0.009,0.145,0,0.211-0.038  c0.182-0.095,0.229-0.171,0.409-0.295c0.104-0.067,0.172-0.077,0.278-0.104h0.512c0.57,0,1.047,0.027,1.584,0.027  c0.024,0.006,0.049,0.01,0.072,0.016c0.176,0.037,0.293,0.09,0.476,0.146c0.069,0.039,0.105,0.076,0.175,0.076  c0.131,0,0.235-0.01,0.371,0.029c0.142,0.047,0.217,0.143,0.371,0.143c0.35,0,0.855-0.009,1.236-0.009  c0-0.048-0.01-0.087-0.01-0.134c-0.409,0-0.607,0.026-0.924-0.123c-0.133-0.039-0.273,0.094-0.371,0  c-0.086-0.077,0.05-0.238,0.077-0.373c0-0.151,0.058-0.258,0.191-0.371c0.075-0.143,0.103-0.258,0.247-0.285  c0.276-0.096,0.533,0.027,0.818-0.066c0.123,0,0.161-0.162,0.275-0.182c0.213-0.066,0.361,0.01,0.572-0.114  c0.105-0.104,0.161-0.124,0.267-0.142c0.133-0.049,0.238-0.029,0.371,0.027c0.067,0.066,0.145,0.17,0.247,0.143  c0.068-0.028,0.011-0.104,0.038-0.152c0.039-0.086,0.106-0.066,0.191-0.095h0.905c0.563,0,0.998-0.058,1.322-0.306  c-0.018-0.104-0.018-0.199-0.086-0.248c-0.084-0.094-0.238-0.112-0.324-0.199c-0.072-0.086-0.084-0.219-0.113-0.333  c-0.228-0.21-0.228-0.677-0.142-1.115c-0.124,0.087-0.218,0.087-0.294,0.163c-0.105,0.096-0.374,0.275-0.557,0.333  c-0.372,0.116-0.938,0.269-1.256,0.011c-0.047-0.039-0.089-0.086-0.124-0.145c-0.18,0.037-0.628,0.134-0.628-0.143  c0.034-0.064,0.034-0.131,0.034-0.189c-0.005-0.082-0.012-0.156,0.042-0.21c0.028-0.086,0.143-0.095,0.2-0.134  c0.116-0.238,0.181-0.543,0.372-0.752c0-0.03,0.004-0.064,0.012-0.101c0.038-0.164,0.15-0.356,0.285-0.44  c0.03-0.021,0.062-0.033,0.096-0.039c0.227-0.086,0.359,0.047,0.578-0.096c0.162-0.066,0.152-0.229,0.286-0.314  c0.149-0.309,0.265-0.52,0.509-0.676c0.098-0.062,0.213-0.114,0.358-0.162c0.121-0.067,0.192,0,0.304-0.029  c0.106-0.047,0.162-0.152,0.259-0.182c0.277-0.074,0.418,0.011,0.656-0.123c0.228-0.221,0.57-0.144,0.941-0.258  c0.133-0.059,0.192-0.136,0.298-0.192c0.018-0.009,0.035-0.019,0.057-0.026c0.297-0.076,0.408,0.057,0.704-0.039  c0.258,0,0.543-0.17,0.828-0.265c0.19-0.067,0.306-0.038,0.507-0.125c0.064-0.028,0.072-0.097,0.16-0.114  c0.152-0.037,0.275-0.047,0.407-0.152c-0.015,0.013-0.031,0.023-0.047,0.035l0.022,0.039c0,0,0.311-0.033,0.463,0.15  c0,0-0.068,0.102-0.152,0.107c0,0,0.111,0.184,0.363,0.252c0,0,0.151,0.08,0.383-0.074c0,0,0.33-0.053,0.361,0.004v0.208  c0,0,0.375-0.011,0.418-0.126c0,0-0.166,0.324-0.125,0.324c0,0,0.324,0.104,0.367,0.053c0,0,0.77-0.393,0.867-0.49  c0,0-0.02-0.111-0.234-0.094c0,0-0.311,0.142-0.262-0.111l0.178-0.578c0.105-0.046,0.197-0.15,0.237-0.27  c0.172-0.334,0.457-0.639,0.848-0.762c0.024-0.008,0.047-0.015,0.07-0.019c0.177-0.03,0.317,0.033,0.5,0.019  c0.312-0.146,0.56-0.209,0.89-0.315c0.035-0.013,0.071-0.024,0.11-0.038c0.126-0.047,0.163-0.047,0.288-0.133  c0.181-0.086,0.342-0.076,0.455-0.191c0.104-0.047,0.098-0.191,0.154-0.257c0.238-0.112,0.256-0.313,0.457-0.514  c0.123-0.114,0.266-0.134,0.371-0.306c0-0.221,0.169-0.439,0.334-0.621c0.072-0.076,0.143-0.147,0.201-0.207  c0.178-0.096,0.205-0.172,0.322-0.361c0.084-0.168,0.144-0.336,0.283-0.479c0.035-0.035,0.071-0.07,0.117-0.104  c0.123-0.029,0.208-0.076,0.275-0.162c0.066-0.125,0.104-0.219,0.237-0.286c0.202-0.092,0.277-0.184,0.437-0.309  c0.018-0.019,0.043-0.033,0.07-0.054c0.113-0.113,0.313-0.143,0.438-0.258c0.086-0.094,0.133-0.218,0.264-0.257  c0.127-0.047,0.252-0.047,0.382-0.038c0.105-0.021,0.188-0.031,0.257-0.037c0.35-0.021,0.321,0.137,0.497-0.039  c0.105-0.057,0.075-0.162,0.105-0.258c0.095-0.199,0.207-0.408,0.427-0.523C96.455,160.562,95.932,160.438,95.932,160.134z   M76.807,157.182c-0.024-0.104-0.178-0.05-0.277-0.076c-0.036,0-0.064-0.049-0.094-0.049c-0.076-0.019-0.142,0.021-0.219,0.059  c-0.057,0.027-0.123,0.085-0.152,0.123c0,0-0.047,0-0.047,0.01c0,0-0.018,0.066-0.028,0.066c-0.144,0.097-0.267,0.047-0.407,0.105  c-0.07,0.027-0.128,0.057-0.146,0.084c-0.047,0.01-0.047,0.066-0.055,0.105c-0.051,0.076-0.134,0.113-0.211,0.113  c0.029-0.076,0.047-0.104,0.096-0.181c0-0.01,0.01-0.058,0.01-0.058c0-0.01,0.065-0.039,0.065-0.039  c0.048-0.047,0.171-0.104,0.144-0.209c-0.037-0.133-0.237-0.067-0.373-0.067c-0.047,0-0.113-0.026-0.17-0.038  c-0.144-0.025-0.268,0.051-0.42-0.018c0.077-0.076,0.152-0.143,0.213-0.211c0.025-0.008,0.063,0,0.094-0.008  c0.066-0.028,0.047-0.135,0.066-0.211c0.036-0.104,0.17-0.065,0.275-0.104c0.105-0.058,0.047-0.19,0.171-0.267  c0.048-0.029,0.106,0.01,0.161,0.027c0.105,0.057,0.174,0.047,0.257,0.076c0.087,0.009,0.164,0,0.23,0  c0.075,0,0.133-0.029,0.21-0.038h0.084c0.076-0.038,0.076-0.123,0.105-0.209c0.039-0.114,0.171-0.151,0.275-0.124  c0.029,0,0.047,0.076,0.076,0.076c0.066,0.057,0.172,0.066,0.276,0.104c0.039,0.021,0.066,0.067,0.106,0.086  c0.188,0.066,0.237,0.183,0.43,0.268c0.026,0.038,0.094,0.076,0.132,0.085c0,0,0.009,0.039,0.027,0.039  c0.021,0.047,0.089,0.057,0.114,0.085c0.068,0.066,0.068,0.229,0.127,0.286c-0.146,0.056-0.229,0-0.374,0  c-0.026,0-0.056,0-0.094,0.028c-0.098,0.026-0.125,0.189-0.175,0.256c-0.027,0.039-0.075,0.039-0.123,0.039  c-0.104,0.021-0.188,0.076-0.281,0.021C76.807,157.42,76.836,157.275,76.807,157.182z M78.817,166.618  c-0.005,0.024-0.015,0.042-0.026,0.06c-0.061,0.1-0.207,0.119-0.344,0.151c-0.068,0.028-0.134,0.094-0.174,0.144  c-0.073,0.065-0.207,0.094-0.32,0.131h-0.089c-0.075,0.059-0.008,0.162-0.008,0.25c-0.027,0.149-0.067,0.217-0.142,0.365  l-0.003,0.006c0-0.086,0.012-0.172-0.027-0.248c-0.028-0.039-0.097-0.076-0.105-0.123c-0.094-0.088-0.038-0.238-0.02-0.362  c0-0.048,0.04-0.067,0.058-0.097c0.039-0.064,0.095-0.266,0.106-0.332c-0.106,0-0.269,0.144-0.374,0.144  c-0.074,0.028-0.408-0.038-0.396-0.104c0-0.066,0.199-0.172,0.217-0.219c0.01-0.037,0.01-0.097,0.018-0.105  c0.029-0.086,0.135-0.027,0.221-0.027c0.068,0,0.133,0.027,0.191-0.02c0.112-0.039,0.124-0.105,0.189-0.209  c0.012-0.049,0.048-0.067,0.067-0.105c0.008-0.037-0.02-0.096,0-0.135c0-0.008,0.047-0.065,0.047-0.065  c0.028-0.048,0.05-0.112,0.067-0.144c0.105-0.229,0.047-0.381,0.047-0.608c0-0.038,0.019-0.065,0.049-0.104  c0.064-0.057,0.113-0.229,0.17-0.334c-0.018,0.135-0.036,0.277-0.076,0.41c-0.058,0.162-0.094,0.344,0.01,0.459  c0,0.018,0.066,0.018,0.104,0.035c0.029,0.029,0.057,0.088,0.105,0.105c0.095,0.029,0.172,0,0.286,0.029  c0.113,0.076,0.085,0.209,0.152,0.275c0,0.028,0.056,0.028,0.056,0.028c0.039,0.144,0.105,0.219,0.068,0.381  C78.902,166.391,78.902,166.458,78.817,166.618z M67.408,159.504c-0.173,0-0.334,0.059-0.438-0.047  c-0.104-0.039-0.172-0.115-0.2-0.219c-0.038-0.029,0.01-0.152-0.058-0.191c-0.181-0.047-0.238,0.221-0.419,0.277  c-0.124,0.029-0.379-0.354-0.504-0.42c-0.201-0.057-2.039-0.172-2.104-0.027c-0.039,0.057,1.989,0.6,2.294,0.703  c0.277,0.077,0.562,0.097,0.733,0.275c0.086,0.076,0.153,0.172,0.267,0.211c0.21,0.096,0.495-0.039,0.553,0.172  c0,0.171,0.669,0.467,0.846,0.514c0.154,0.152,0.469-0.656,0.526-0.312c0.306,1.896,0.313,0.617,0.359,0.465  c0.03-0.123,0.164-0.665,0.241-0.779c0.084-0.173,0.188-0.361,0.188-0.639c-0.142,0-0.171-0.219-0.142-0.371  c-0.085-0.028-0.096-0.01-0.163,0.019c-0.125,0.076-0.074,0.209-0.142,0.276c-0.066,0.066-0.171,0.105-0.201,0.21  c-0.027,0.096-0.104,0.267-0.161,0.209c-0.219-0.104-0.077-0.353-0.077-0.581c-0.056-0.2-0.133-0.409-0.275-0.57  c-0.171-0.039-0.695,0.172-0.742,0.295c-0.066,0.172,0.164,0.37,0.036,0.485C67.723,159.619,67.561,159.504,67.408,159.504z"/>
<g>
	<g>
		<g>
			<polygon fill="#000" points="320.676,64.235 320.742,64.209 316.098,46.496 327.924,43.447 321.441,25.138 306.178,28.188      304.867,24 277.957,40.014 281.389,58.133 284.631,59.275 284.824,63.854 291.879,58.133 294.742,78.92 323.162,73.446      320.742,64.209    "/>

				<polygon fill="none" stroke="#D1EAFF" stroke-width="0.5" stroke-linecap="round" stroke-linejoin="round" stroke-miterlimit="1" points="     320.676,64.235 320.742,64.209 316.098,46.496 327.924,43.447 321.441,25.138 306.178,28.188 304.867,24 277.957,40.014      281.389,58.133 284.631,59.275 284.824,63.854 291.879,58.133 294.742,78.92 323.162,73.446 320.742,64.209    "/>

				<polygon opacity="0.25" fill="none" stroke="#000000" stroke-width="0.5" stroke-linecap="round" stroke-linejoin="round" stroke-miterlimit="1" enable-background="new    " points="     320.676,64.235 320.742,64.209 316.098,46.496 327.924,43.447 321.441,25.138 306.178,28.188 304.867,24 277.957,40.014      281.389,58.133 284.631,59.275 284.824,63.854 291.879,58.133 294.742,78.92 323.162,73.446 320.742,64.209    "/>
		</g>
		<g>
			<path fill="#000" d="M174.02,113.629l-1.912-7.055l49.014-4.006v-21.36l4.196,5.147V50.883l-4.004,2.673v-5.342h3.812v-9.346     V31.82c-2.44,1.938-5.017,3.87-8.008,6.857c-2.101,2.099-5.531,2.29-7.632,4.388c-3.047,2.861-4.764,7.439-8.008,10.681     c-2.287,2.289-4.58,4.766-8.393,5.722c-3.814,1.334-10.107,0.951-13.16,3.812c-3.621,3.433-4.955,9.726-4.955,18.31     c0,8.391,1.334,13.159-1.91,19.453c-1.711,2.671-3.621,3.436-5.531,5.148c-0.57,0.572-0.76,1.72-1.904,2.1     c-1.645,1.072-3.424,1.045-5.01,0.352c1.385,1.752,2.877,3.621,3.674,4.416L174.02,113.629z"/>

				<path fill="none" stroke="#D1EAFF" stroke-width="0.5" stroke-linecap="round" stroke-linejoin="round" stroke-miterlimit="1" d="     M174.02,113.629l-1.912-7.055l49.014-4.006v-21.36l4.196,5.147V50.883l-4.004,2.673v-5.342h3.812v-9.346V31.82     c-2.44,1.938-5.017,3.87-8.008,6.857c-2.101,2.099-5.531,2.29-7.632,4.388c-3.047,2.861-4.764,7.439-8.008,10.681     c-2.287,2.289-4.58,4.766-8.393,5.722c-3.814,1.334-10.107,0.951-13.16,3.812c-3.621,3.433-4.955,9.726-4.955,18.31     c0,8.391,1.334,13.159-1.91,19.453c-1.711,2.671-3.621,3.436-5.531,5.148c-0.57,0.572-0.76,1.72-1.904,2.1     c-1.645,1.072-3.424,1.045-5.01,0.352c1.385,1.752,2.877,3.621,3.674,4.416L174.02,113.629z"/>

				<path opacity="0.25" fill="none" stroke="#000000" stroke-width="0.5" stroke-linecap="round" stroke-linejoin="round" stroke-miterlimit="1" enable-background="new    " d="     M174.02,113.629l-1.912-7.055l49.014-4.006v-21.36l4.196,5.147V50.883l-4.004,2.673v-5.342h3.812v-9.346V31.82     c-2.44,1.938-5.017,3.87-8.008,6.857c-2.101,2.099-5.531,2.29-7.632,4.388c-3.047,2.861-4.764,7.439-8.008,10.681     c-2.287,2.289-4.58,4.766-8.393,5.722c-3.814,1.334-10.107,0.951-13.16,3.812c-3.621,3.433-4.955,9.726-4.955,18.31     c0,8.391,1.334,13.159-1.91,19.453c-1.711,2.671-3.621,3.436-5.531,5.148c-0.57,0.572-0.76,1.72-1.904,2.1     c-1.645,1.072-3.424,1.045-5.01,0.352c1.385,1.752,2.877,3.621,3.674,4.416L174.02,113.629z"/>
		</g>
		<g>
			<path fill="#000" d="M294.742,78.92l-1.133-8.213l-38.922,14.698c-0.763,0.571-0.951,0.95-2.097,1.144     c-1.334,0.191-2.67,1.145-3.437,1.905c-1.334,1.335-1.524,3.436-3.241,4.196c-0.951,0.574-2.097,0.955-3.049,0.955     c-2.669,1.144-4.388,1.335-7.248,2.289c-0.955,0.381-1.908,1.527-2.671,2.67c-0.188,1.144-1.334,2.289-2.668,2.289     c-0.957,0.19-2.291,0-3.436,0.19c-2.094,0.574-3.812,1.525-5.723,1.525l14.045,16.326c1.191-1.131,2.572-2.131,3.691-3.164     c2.291-2.48,3.625-5.34,7.438-6.676c1.334-0.193,2.858,0,4.194-0.764c3.628-1.907,4.58-3.434,8.201-5.912     c2.101-1.336,3.435-1.526,5.529-2.097c4.008,0,6.678,0,10.299,0c11.443,0,20.979,0.571,31.656,0.571     c0.541,0.093,1.045,0.191,1.529,0.298l0.082-24.746L294.742,78.92z"/>

				<path fill="none" stroke="#D1EAFF" stroke-width="0.5" stroke-linecap="round" stroke-linejoin="round" stroke-miterlimit="1" d="     M294.742,78.92l-1.133-8.213l-38.922,14.698c-0.763,0.571-0.951,0.95-2.097,1.144c-1.334,0.191-2.67,1.145-3.437,1.905     c-1.334,1.335-1.524,3.436-3.241,4.196c-0.951,0.574-2.097,0.955-3.049,0.955c-2.669,1.144-4.388,1.335-7.248,2.289     c-0.955,0.381-1.908,1.527-2.671,2.67c-0.188,1.144-1.334,2.289-2.668,2.289c-0.957,0.19-2.291,0-3.436,0.19     c-2.094,0.574-3.812,1.525-5.723,1.525l14.045,16.326c1.191-1.131,2.572-2.131,3.691-3.164c2.291-2.48,3.625-5.34,7.438-6.676     c1.334-0.193,2.858,0,4.194-0.764c3.628-1.907,4.58-3.434,8.201-5.912c2.101-1.336,3.435-1.526,5.529-2.097     c4.008,0,6.678,0,10.299,0c11.443,0,20.979,0.571,31.656,0.571c0.541,0.093,1.045,0.191,1.529,0.298l0.082-24.746L294.742,78.92z     "/>

				<path opacity="0.25" fill="none" stroke="#000000" stroke-width="0.5" stroke-linecap="round" stroke-linejoin="round" stroke-miterlimit="1" enable-background="new    " d="     M294.742,78.92l-1.133-8.213l-38.922,14.698c-0.763,0.571-0.951,0.95-2.097,1.144c-1.334,0.191-2.67,1.145-3.437,1.905     c-1.334,1.335-1.524,3.436-3.241,4.196c-0.951,0.574-2.097,0.955-3.049,0.955c-2.669,1.144-4.388,1.335-7.248,2.289     c-0.955,0.381-1.908,1.527-2.671,2.67c-0.188,1.144-1.334,2.289-2.668,2.289c-0.957,0.19-2.291,0-3.436,0.19     c-2.094,0.574-3.812,1.525-5.723,1.525l14.045,16.326c1.191-1.131,2.572-2.131,3.691-3.164c2.291-2.48,3.625-5.34,7.438-6.676     c1.334-0.193,2.858,0,4.194-0.764c3.628-1.907,4.58-3.434,8.201-5.912c2.101-1.336,3.435-1.526,5.529-2.097     c4.008,0,6.678,0,10.299,0c11.443,0,20.979,0.571,31.656,0.571c0.541,0.093,1.045,0.191,1.529,0.298l0.082-24.746L294.742,78.92z     "/>
		</g>
		<g>
			<path fill="#000" d="M230.279,100.852c1.334,0,2.479-1.145,2.668-2.289c0.762-1.144,1.715-2.29,2.67-2.67     c2.861-0.954,4.58-1.145,7.248-2.289c0.953,0,2.098-0.381,3.049-0.955c1.717-0.76,1.908-2.861,3.242-4.196     c0.766-0.761,2.102-1.714,3.436-1.905c1.145-0.193,1.334-0.573,2.096-1.144l38.922-14.698l-1.729-12.574l-7.055,5.721     l-0.193-4.579l-3.241-1.143l-3.433-18.119l-20.408-8.011h-12.396v6.865h-20.027v9.346h-3.811v5.342l4.004-2.673v35.472     l-4.197-5.147v21.36c1.91,0,3.629-0.953,5.723-1.526C227.988,100.852,229.322,101.042,230.279,100.852z"/>

				<path fill="none" stroke="#D1EAFF" stroke-width="0.5" stroke-linecap="round" stroke-linejoin="round" stroke-miterlimit="1" d="     M230.279,100.852c1.334,0,2.479-1.145,2.668-2.289c0.762-1.144,1.715-2.29,2.67-2.67c2.861-0.954,4.58-1.145,7.248-2.289     c0.953,0,2.098-0.381,3.049-0.955c1.717-0.76,1.908-2.861,3.242-4.196c0.766-0.761,2.102-1.714,3.436-1.905     c1.145-0.193,1.334-0.573,2.096-1.144l38.922-14.698l-1.729-12.574l-7.055,5.721l-0.193-4.579l-3.241-1.143l-3.433-18.119     l-20.408-8.011h-12.396v6.865h-20.027v9.346h-3.811v5.342l4.004-2.673v35.472l-4.197-5.147v21.36c1.91,0,3.629-0.953,5.723-1.526     C227.988,100.852,229.322,101.042,230.279,100.852z"/>

				<path opacity="0.25" fill="none" stroke="#000000" stroke-width="0.5" stroke-linecap="round" stroke-linejoin="round" stroke-miterlimit="1" enable-background="new    " d="     M230.279,100.852c1.334,0,2.479-1.145,2.668-2.289c0.762-1.144,1.715-2.29,2.67-2.67c2.861-0.954,4.58-1.145,7.248-2.289     c0.953,0,2.098-0.381,3.049-0.955c1.717-0.76,1.908-2.861,3.242-4.196c0.766-0.761,2.102-1.714,3.436-1.905     c1.145-0.193,1.334-0.573,2.096-1.144l38.922-14.698l-1.729-12.574l-7.055,5.721l-0.193-4.579l-3.241-1.143l-3.433-18.119     l-20.408-8.011h-12.396v6.865h-20.027v9.346h-3.811v5.342l4.004-2.673v35.472l-4.197-5.147v21.36c1.91,0,3.629-0.953,5.723-1.526     C227.988,100.852,229.322,101.042,230.279,100.852z"/>
		</g>
		<g>
			<path fill="#000" d="M172.107,106.574l1.912,7.055l0.369,52.128c0.533-0.589,1.105-1.18,1.725-1.776     c1.334-2.481,1.525-4.578,3.812-6.104c4.39-2.287,7.248-3.242,9.916-5.911c5.347-2.67,7.441-4.005,15.07-6.295     c4.196,0,6.674-1.146,10.678-1.146c3.056,0,6.484-1.521,6.484-4.383c0-8.774,5.344-12.207,10.489-16.211     c0-2.094,1.158-3.662,2.603-5.037l-14.045-16.324L172.107,106.574z"/>

				<path fill="none" stroke="#D1EAFF" stroke-width="0.5" stroke-linecap="round" stroke-linejoin="round" stroke-miterlimit="1" d="     M172.107,106.574l1.912,7.055l0.369,52.128c0.533-0.589,1.105-1.18,1.725-1.776c1.334-2.481,1.525-4.578,3.812-6.104     c4.39-2.287,7.248-3.242,9.916-5.911c5.347-2.67,7.441-4.005,15.07-6.295c4.196,0,6.674-1.146,10.678-1.146     c3.056,0,6.484-1.521,6.484-4.383c0-8.774,5.344-12.207,10.489-16.211c0-2.094,1.158-3.662,2.603-5.037l-14.045-16.324     L172.107,106.574z"/>

				<path opacity="0.25" fill="none" stroke="#000000" stroke-width="0.5" stroke-linecap="round" stroke-linejoin="round" stroke-miterlimit="1" enable-background="new    " d="     M172.107,106.574l1.912,7.055l0.369,52.128c0.533-0.589,1.105-1.18,1.725-1.776c1.334-2.481,1.525-4.578,3.812-6.104     c4.39-2.287,7.248-3.242,9.916-5.911c5.347-2.67,7.441-4.005,15.07-6.295c4.196,0,6.674-1.146,10.678-1.146     c3.056,0,6.484-1.521,6.484-4.383c0-8.774,5.344-12.207,10.489-16.211c0-2.094,1.158-3.662,2.603-5.037l-14.045-16.324     L172.107,106.574z"/>
		</g>
		<g>
			<path fill="#333" d="M174.156,133.18l-0.137-19.551l-9.73-0.572c-0.797-0.793-2.289-2.664-3.674-4.414     c-2.631-1.16-4.717-4.168-4.717-7.025c-6.104,0-8.205,5.529-10.49,10.677c-2.67,5.533-3.246,7.633-5.34,14.497     c-0.766,2.098,0.572,4.575-1.145,6.104c-0.631,0.627-1.42,1.088-2.266,1.506c-2.99,1.471-6.801,2.231-7.842,6.692     c-2.287,1.527-3.436,3.433-3.812,5.913c-1.334,4.005-4.389,6.294-2.104,12.588c0.953,4.387-0.381,9.348,3.629,10.489     c1.904,1.717,4.197,1.717,6.867,2.86c2.857,2.861,7.625,4.388,12.201,2.67c0-5.34,9.729-6.485,15.641-4.769     c4.387,2.099,3.43,9.155,7.625,9.155c0-5.703,1.631-9.934,5.525-14.243L174.156,133.18z" id="windsor_svg"/>

				<path fill="none" stroke="#D1EAFF" stroke-width="0.5" stroke-linecap="round" stroke-linejoin="round" stroke-miterlimit="1" d="     M174.156,133.18l-0.137-19.551l-9.73-0.572c-0.797-0.793-2.289-2.664-3.674-4.414c-2.631-1.16-4.717-4.168-4.717-7.025     c-6.104,0-8.205,5.529-10.49,10.677c-2.67,5.533-3.246,7.633-5.34,14.497c-0.766,2.098,0.572,4.575-1.145,6.104     c-0.631,0.627-1.42,1.088-2.266,1.506c-2.99,1.471-6.801,2.231-7.842,6.692c-2.287,1.527-3.436,3.433-3.812,5.913     c-1.334,4.005-4.389,6.294-2.104,12.588c0.953,4.387-0.381,9.348,3.629,10.489c1.904,1.717,4.197,1.717,6.867,2.86     c2.857,2.861,7.625,4.388,12.201,2.67c0-5.34,9.729-6.485,15.641-4.769c4.387,2.099,3.43,9.155,7.625,9.155     c0-5.703,1.631-9.934,5.525-14.243L174.156,133.18z"/>

				<path opacity="0.25" fill="none" stroke="#000000" stroke-width="0.5" stroke-linecap="round" stroke-linejoin="round" stroke-miterlimit="1" enable-background="new    " d="     M174.156,133.18l-0.137-19.551l-9.73-0.572c-0.797-0.793-2.289-2.664-3.674-4.414c-2.631-1.16-4.717-4.168-4.717-7.025     c-6.104,0-8.205,5.529-10.49,10.677c-2.67,5.533-3.246,7.633-5.34,14.497c-0.766,2.098,0.572,4.575-1.145,6.104     c-0.631,0.627-1.42,1.088-2.266,1.506c-2.99,1.471-6.801,2.231-7.842,6.692c-2.287,1.527-3.436,3.433-3.812,5.913     c-1.334,4.005-4.389,6.294-2.104,12.588c0.953,4.387-0.381,9.348,3.629,10.489c1.904,1.717,4.197,1.717,6.867,2.86     c2.857,2.861,7.625,4.388,12.201,2.67c0-5.34,9.729-6.485,15.641-4.769c4.387,2.099,3.43,9.155,7.625,9.155     c0-5.703,1.631-9.934,5.525-14.243L174.156,133.18z"/>
		</g>
	</g>

	<g fill="white">
		<path d="M147.459,141.582h-2.531v1.723h2.971v1.061h-4.289v-6.398h4.279v1.067h-2.961v1.524h2.531V141.582z"/>
		<path d="M151.363,143.051c0-0.156-0.076-0.277-0.23-0.367c-0.154-0.09-0.4-0.17-0.74-0.24c-1.131-0.235-1.697-0.717-1.697-1.44    c0-0.422,0.176-0.772,0.525-1.058c0.35-0.281,0.809-0.424,1.373-0.424c0.604,0,1.086,0.144,1.449,0.426    c0.361,0.285,0.543,0.654,0.543,1.107h-1.271c0-0.182-0.059-0.33-0.176-0.449c-0.117-0.119-0.301-0.179-0.549-0.179    c-0.215,0-0.379,0.048-0.496,0.146c-0.117,0.097-0.176,0.22-0.176,0.369c0,0.142,0.066,0.254,0.199,0.341    c0.133,0.087,0.359,0.161,0.676,0.225s0.582,0.134,0.799,0.214c0.67,0.245,1.006,0.672,1.006,1.278    c0,0.435-0.186,0.784-0.557,1.052c-0.373,0.27-0.854,0.402-1.441,0.402c-0.4,0-0.754-0.071-1.062-0.213    c-0.308-0.143-0.551-0.338-0.727-0.586c-0.176-0.246-0.264-0.514-0.264-0.801h1.203c0.012,0.226,0.096,0.397,0.252,0.519    c0.154,0.12,0.361,0.18,0.623,0.18c0.242,0,0.428-0.046,0.551-0.138C151.301,143.32,151.363,143.199,151.363,143.051z"/>
		<path d="M156.104,143.051c0-0.156-0.076-0.277-0.23-0.367c-0.152-0.09-0.4-0.17-0.74-0.24c-1.131-0.235-1.695-0.717-1.695-1.44    c0-0.422,0.174-0.772,0.525-1.058c0.35-0.281,0.807-0.424,1.373-0.424c0.604,0,1.086,0.144,1.447,0.426    c0.361,0.285,0.543,0.654,0.543,1.107h-1.27c0-0.182-0.059-0.33-0.176-0.449c-0.117-0.119-0.301-0.179-0.551-0.179    c-0.213,0-0.379,0.048-0.496,0.146c-0.117,0.097-0.176,0.22-0.176,0.369c0,0.142,0.066,0.254,0.201,0.341    c0.133,0.087,0.357,0.161,0.674,0.225c0.317,0.063,0.582,0.134,0.799,0.214c0.672,0.245,1.008,0.672,1.008,1.278    c0,0.435-0.188,0.784-0.559,1.052c-0.373,0.27-0.854,0.402-1.441,0.402c-0.398,0-0.752-0.071-1.061-0.213    c-0.311-0.143-0.553-0.338-0.729-0.586c-0.176-0.246-0.264-0.514-0.264-0.801h1.205c0.012,0.226,0.094,0.397,0.25,0.519    c0.154,0.12,0.363,0.18,0.623,0.18c0.244,0,0.428-0.046,0.553-0.138C156.043,143.32,156.104,143.199,156.104,143.051z"/>
		<path d="M160.404,144.452c-0.697,0-1.264-0.214-1.701-0.642c-0.439-0.429-0.658-0.998-0.658-1.709v-0.123    c0-0.479,0.092-0.904,0.277-1.281c0.184-0.377,0.445-0.666,0.785-0.87c0.338-0.204,0.723-0.306,1.156-0.306    c0.65,0,1.164,0.205,1.537,0.615c0.373,0.409,0.561,0.991,0.561,1.743v0.521h-3.029c0.041,0.311,0.166,0.559,0.373,0.746    c0.205,0.188,0.467,0.281,0.783,0.281c0.49,0,0.871-0.178,1.146-0.531l0.625,0.699c-0.191,0.27-0.449,0.479-0.773,0.629    C161.16,144.377,160.801,144.452,160.404,144.452z M160.26,140.545c-0.252,0-0.455,0.086-0.613,0.256    c-0.156,0.172-0.256,0.416-0.301,0.733h1.768v-0.103c-0.006-0.281-0.082-0.5-0.229-0.654    C160.738,140.623,160.529,140.545,160.26,140.545z"/>
		<path d="M164.912,141.029l0.799-1.42h1.357l-1.354,2.328l1.412,2.426h-1.363l-0.848-1.493l-0.844,1.493h-1.367l1.41-2.426    l-1.348-2.328h1.361L164.912,141.029z"/>
	</g>
	<g fill="white">
		<path d="M182.387,80.052h2.799v1.059h-4.117v-6.398h1.318V80.052L182.387,80.052z"/>
		<path d="M188.809,81.111c-0.059-0.114-0.1-0.256-0.127-0.426c-0.307,0.343-0.707,0.514-1.199,0.514    c-0.467,0-0.852-0.135-1.157-0.404s-0.459-0.609-0.459-1.02c0-0.504,0.186-0.891,0.561-1.16c0.373-0.27,0.912-0.406,1.619-0.409    h0.584v-0.272c0-0.22-0.057-0.396-0.17-0.527c-0.11-0.132-0.291-0.198-0.533-0.198c-0.215,0-0.381,0.051-0.504,0.154    c-0.121,0.103-0.182,0.243-0.182,0.422h-1.271c0-0.275,0.084-0.53,0.254-0.765s0.41-0.418,0.721-0.551    c0.312-0.133,0.66-0.2,1.048-0.2c0.586,0,1.051,0.147,1.396,0.441c0.344,0.295,0.518,0.708,0.518,1.242v2.061    c0.002,0.451,0.064,0.792,0.188,1.024v0.075L188.809,81.111L188.809,81.111z M187.76,80.228c0.186,0,0.359-0.042,0.518-0.125    s0.275-0.195,0.353-0.336V78.95h-0.476c-0.637,0-0.975,0.22-1.016,0.659l-0.004,0.075c0,0.158,0.055,0.289,0.168,0.391    C187.412,80.177,187.566,80.228,187.76,80.228z"/>
		<path d="M192.193,76.356l0.039,0.532c0.336-0.413,0.793-0.62,1.367-0.62c0.61,0,1.03,0.242,1.26,0.725    c0.334-0.483,0.811-0.725,1.43-0.725c0.516,0,0.898,0.15,1.15,0.45c0.252,0.301,0.379,0.752,0.379,1.356v3.037h-1.275v-3.039    c0-0.271-0.053-0.468-0.158-0.593s-0.291-0.187-0.559-0.187c-0.381,0-0.645,0.182-0.791,0.546l0.006,3.272h-1.271v-3.035    c0-0.276-0.053-0.476-0.162-0.599c-0.106-0.124-0.293-0.185-0.553-0.185c-0.361,0-0.621,0.15-0.783,0.449v3.37h-1.27v-4.755    L192.193,76.356L192.193,76.356z"/>
		<path d="M203.201,78.778c0,0.762-0.164,1.356-0.488,1.782c-0.326,0.427-0.779,0.64-1.363,0.64c-0.516,0-0.926-0.198-1.233-0.593    l-0.058,0.505h-1.143v-6.75h1.27v2.421c0.293-0.343,0.678-0.514,1.156-0.514c0.58,0,1.035,0.213,1.365,0.64    c0.328,0.426,0.494,1.026,0.494,1.799V78.778z M201.93,78.681c0-0.482-0.076-0.834-0.229-1.056s-0.379-0.333-0.68-0.333    c-0.404,0-0.685,0.166-0.836,0.498v1.882c0.155,0.335,0.438,0.502,0.844,0.502c0.41,0,0.68-0.203,0.809-0.608    C201.9,79.373,201.93,79.078,201.93,78.681z"/>
		<path d="M205.635,75.188v1.169h0.814v0.932h-0.814v2.373c0,0.176,0.035,0.302,0.102,0.378c0.068,0.076,0.197,0.114,0.388,0.114    c0.142,0,0.267-0.01,0.373-0.031v0.962c-0.248,0.076-0.504,0.114-0.769,0.114c-0.891,0-1.346-0.45-1.362-1.349v-2.562h-0.693    v-0.932h0.693v-1.169L205.635,75.188L205.635,75.188z"/>
		<path d="M207,78.69c0-0.472,0.092-0.892,0.273-1.261c0.181-0.369,0.442-0.655,0.783-0.857c0.342-0.202,0.737-0.303,1.188-0.303    c0.644,0,1.166,0.196,1.569,0.589c0.406,0.393,0.634,0.926,0.681,1.6l0.01,0.325c0,0.729-0.205,1.315-0.61,1.756    c-0.408,0.441-0.953,0.661-1.64,0.661s-1.233-0.22-1.644-0.659c-0.408-0.439-0.611-1.038-0.611-1.794V78.69z M208.271,78.78    c0,0.452,0.084,0.797,0.254,1.036c0.17,0.239,0.414,0.359,0.729,0.359c0.308,0,0.547-0.118,0.722-0.354    c0.172-0.236,0.258-0.614,0.258-1.133c0-0.443-0.086-0.786-0.258-1.03c-0.175-0.244-0.418-0.365-0.73-0.365    c-0.311,0-0.551,0.121-0.721,0.363C208.355,77.897,208.271,78.272,208.271,78.78z"/>
		<path d="M213.594,76.356l0.041,0.549c0.34-0.425,0.795-0.637,1.365-0.637c0.504,0,0.879,0.148,1.125,0.444    s0.373,0.738,0.379,1.327v3.072h-1.27v-3.048c0-0.271-0.06-0.466-0.176-0.588c-0.117-0.122-0.312-0.183-0.586-0.183    c-0.357,0-0.625,0.153-0.804,0.458v3.361h-1.271v-4.755H213.594L213.594,76.356z"/>
	</g>
	<g fill="white">
		<path d="M235.143,60.887l1.646,4.641l1.635-4.641h1.729v6.398h-1.321v-1.749l0.133-3.019l-1.729,4.768h-0.903l-1.724-4.764    l0.131,3.015v1.749h-1.317v-6.398H235.143z"/>
		<path d="M241.35,61.3c0-0.19,0.064-0.347,0.191-0.47c0.129-0.123,0.301-0.185,0.521-0.185c0.217,0,0.389,0.062,0.518,0.185    s0.193,0.28,0.193,0.47c0,0.193-0.064,0.352-0.195,0.475c-0.129,0.123-0.303,0.185-0.516,0.185c-0.215,0-0.388-0.062-0.517-0.185    C241.416,61.651,241.35,61.493,241.35,61.3z M242.699,67.285h-1.273V62.53h1.273V67.285z"/>
		<path d="M243.637,64.873c0-0.741,0.166-1.332,0.5-1.771c0.332-0.439,0.787-0.659,1.363-0.659c0.463,0,0.846,0.173,1.148,0.519    v-2.426h1.272v6.75h-1.146l-0.062-0.505c-0.316,0.396-0.723,0.593-1.221,0.593c-0.561,0-1.01-0.22-1.348-0.661    S243.637,65.658,243.637,64.873z M244.908,64.963c0,0.447,0.076,0.79,0.232,1.029c0.153,0.238,0.381,0.357,0.676,0.357    c0.393,0,0.67-0.166,0.832-0.499v-1.885c-0.158-0.333-0.435-0.499-0.822-0.499C245.213,63.466,244.908,63.965,244.908,64.963z"/>
		<path d="M248.846,64.873c0-0.741,0.166-1.332,0.5-1.771c0.332-0.439,0.787-0.659,1.363-0.659c0.463,0,0.846,0.173,1.148,0.519    v-2.426h1.272v6.75h-1.146l-0.062-0.505c-0.316,0.396-0.723,0.593-1.221,0.593c-0.561,0-1.01-0.22-1.348-0.661    S248.846,65.658,248.846,64.873z M250.117,64.963c0,0.447,0.076,0.79,0.232,1.029c0.153,0.238,0.381,0.357,0.676,0.357    c0.393,0,0.67-0.166,0.832-0.499v-1.885c-0.158-0.333-0.435-0.499-0.822-0.499C250.422,63.466,250.117,63.965,250.117,64.963z"/>
		<path d="M255.553,67.285h-1.275v-6.75h1.275V67.285z"/>
		<path d="M258.867,67.373c-0.697,0-1.266-0.214-1.703-0.642c-0.438-0.428-0.656-0.998-0.656-1.709v-0.123    c0-0.478,0.092-0.904,0.277-1.281c0.184-0.376,0.445-0.667,0.783-0.87s0.725-0.306,1.158-0.306c0.649,0,1.162,0.205,1.534,0.615    c0.375,0.41,0.562,0.992,0.562,1.745v0.519h-3.027c0.041,0.311,0.164,0.56,0.371,0.747s0.469,0.281,0.785,0.281    c0.488,0,0.871-0.177,1.146-0.532l0.625,0.699c-0.191,0.27-0.449,0.48-0.773,0.63C259.623,67.297,259.264,67.373,258.867,67.373z     M258.723,63.466c-0.252,0-0.457,0.085-0.613,0.256c-0.155,0.171-0.258,0.415-0.301,0.733h1.767v-0.102    c-0.007-0.283-0.082-0.501-0.229-0.655C259.199,63.543,258.992,63.466,258.723,63.466z"/>
		<path d="M264.217,65.971c0-0.155-0.076-0.277-0.23-0.367c-0.151-0.089-0.399-0.169-0.739-0.24    c-1.131-0.237-1.695-0.718-1.695-1.441c0-0.422,0.175-0.774,0.525-1.057c0.35-0.282,0.807-0.424,1.373-0.424    c0.604,0,1.086,0.142,1.446,0.426c0.361,0.284,0.543,0.653,0.543,1.107h-1.27c0-0.182-0.059-0.332-0.176-0.451    c-0.117-0.118-0.301-0.178-0.551-0.178c-0.213,0-0.379,0.048-0.496,0.145c-0.117,0.097-0.176,0.22-0.176,0.369    c0,0.141,0.065,0.254,0.201,0.34c0.133,0.087,0.356,0.162,0.674,0.225c0.316,0.063,0.582,0.134,0.799,0.213    c0.672,0.246,1.008,0.672,1.008,1.279c0,0.434-0.188,0.785-0.559,1.052c-0.373,0.269-0.854,0.402-1.441,0.402    c-0.398,0-0.752-0.071-1.061-0.213c-0.312-0.142-0.554-0.337-0.729-0.585c-0.177-0.247-0.265-0.515-0.265-0.802h1.205    c0.013,0.226,0.094,0.398,0.25,0.519c0.154,0.12,0.363,0.18,0.623,0.18c0.244,0,0.428-0.046,0.553-0.138    C264.156,66.241,264.217,66.121,264.217,65.971z"/>
		<path d="M268.518,67.373c-0.697,0-1.264-0.214-1.701-0.642c-0.438-0.428-0.657-0.998-0.657-1.709v-0.123    c0-0.478,0.092-0.904,0.276-1.281c0.185-0.376,0.445-0.667,0.785-0.87c0.338-0.204,0.723-0.306,1.156-0.306    c0.65,0,1.164,0.205,1.537,0.615c0.373,0.41,0.561,0.992,0.561,1.745v0.519h-3.028c0.04,0.311,0.165,0.56,0.372,0.747    c0.205,0.188,0.468,0.281,0.783,0.281c0.49,0,0.871-0.177,1.146-0.532l0.625,0.699c-0.191,0.27-0.449,0.48-0.773,0.63    C269.273,67.297,268.914,67.373,268.518,67.373z M268.373,63.466c-0.252,0-0.455,0.085-0.613,0.256    c-0.156,0.171-0.256,0.415-0.301,0.733h1.768v-0.102c-0.006-0.283-0.082-0.501-0.229-0.655    C268.852,63.543,268.643,63.466,268.373,63.466z"/>
		<path d="M273.025,63.95l0.799-1.419h1.357l-1.354,2.329l1.411,2.426h-1.362l-0.849-1.494l-0.844,1.494h-1.367l1.41-2.426    l-1.348-2.329h1.361L273.025,63.95z"/>
	</g>
	<g fill="white">
		<path d="M272.701,89.37h-2.531v1.723h2.971v1.059h-4.289v-6.398h4.281v1.068h-2.963v1.525h2.531V89.37z"/>
		<path d="M275.342,92.151h-1.275v-6.75h1.275V92.151z"/>
		<path d="M276.303,89.739c0-0.729,0.174-1.317,0.521-1.762c0.347-0.445,0.814-0.668,1.404-0.668c0.521,0,0.928,0.179,1.217,0.536    l0.053-0.448h1.152v4.597c0,0.416-0.096,0.778-0.283,1.085c-0.189,0.308-0.455,0.542-0.799,0.703    c-0.342,0.161-0.744,0.242-1.203,0.242c-0.35,0-0.689-0.07-1.02-0.209c-0.332-0.139-0.582-0.318-0.753-0.538l0.562-0.773    c0.315,0.354,0.698,0.532,1.149,0.532c0.338,0,0.601-0.09,0.787-0.27c0.188-0.181,0.281-0.436,0.281-0.767v-0.255    c-0.293,0.331-0.678,0.497-1.156,0.497c-0.57,0-1.033-0.223-1.385-0.67c-0.354-0.447-0.531-1.04-0.531-1.778v-0.054H276.303z     M277.574,89.829c0,0.433,0.086,0.772,0.258,1.018c0.174,0.246,0.41,0.369,0.713,0.369c0.387,0,0.664-0.146,0.83-0.437V88.77    c-0.17-0.292-0.443-0.437-0.822-0.437c-0.305,0-0.543,0.125-0.717,0.375C277.66,88.958,277.574,89.332,277.574,89.829z"/>
		<path d="M281.723,86.166c0-0.19,0.064-0.347,0.191-0.47c0.127-0.123,0.301-0.185,0.521-0.185c0.215,0,0.389,0.062,0.518,0.185    c0.129,0.123,0.193,0.28,0.193,0.47c0,0.193-0.064,0.352-0.195,0.475s-0.303,0.185-0.516,0.185c-0.215,0-0.388-0.062-0.519-0.185    S281.723,86.359,281.723,86.166z M283.072,92.151h-1.275v-4.755h1.275V92.151z"/>
		<path d="M285.404,87.396l0.039,0.549c0.34-0.425,0.797-0.637,1.367-0.637c0.504,0,0.879,0.148,1.125,0.444    s0.371,0.738,0.379,1.327v3.072h-1.271v-3.048c0-0.271-0.059-0.466-0.176-0.588s-0.311-0.183-0.584-0.183    c-0.357,0-0.625,0.153-0.805,0.458v3.361h-1.271v-4.755H285.404L285.404,87.396z"/>
	</g>
	<g fill="white">
		<path d="M290.109,47.119c0,0.63-0.111,1.182-0.334,1.657c-0.224,0.475-0.541,0.841-0.955,1.099s-0.891,0.387-1.426,0.387    c-0.531,0-1.004-0.127-1.42-0.382s-0.738-0.619-0.968-1.092c-0.229-0.473-0.344-1.017-0.348-1.632V46.84    c0-0.63,0.112-1.184,0.342-1.664c0.228-0.479,0.547-0.846,0.961-1.103c0.416-0.256,0.89-0.385,1.422-0.385    c0.533,0,1.009,0.128,1.423,0.385c0.414,0.257,0.735,0.624,0.963,1.103c0.227,0.479,0.34,1.032,0.34,1.659V47.119z     M288.773,46.829c0-0.671-0.119-1.181-0.359-1.529c-0.24-0.348-0.584-0.523-1.029-0.523c-0.441,0-0.783,0.172-1.023,0.517    c-0.239,0.345-0.36,0.849-0.364,1.514v0.312c0,0.653,0.121,1.16,0.36,1.521c0.24,0.361,0.586,0.541,1.037,0.541    c0.441,0,0.781-0.174,1.021-0.521c0.235-0.348,0.356-0.854,0.358-1.519V46.829L288.773,46.829z"/>
		<path d="M292.881,46.837l0.799-1.419h1.359l-1.354,2.329l1.41,2.426h-1.363l-0.849-1.494l-0.844,1.494h-1.367l1.412-2.426    l-1.351-2.329h1.361L292.881,46.837z"/>
		<path d="M296.266,50.173V46.35h-0.707v-0.932h0.707v-0.404c0-0.533,0.154-0.947,0.459-1.241c0.308-0.295,0.734-0.442,1.287-0.442    c0.176,0,0.391,0.029,0.646,0.087l-0.013,0.977c-0.104-0.026-0.235-0.04-0.387-0.04c-0.479,0-0.717,0.226-0.717,0.678v0.385h0.945    v0.932h-0.945v3.823H296.266z"/>
		<path d="M298.988,47.751c0-0.472,0.09-0.892,0.271-1.261c0.181-0.369,0.443-0.655,0.785-0.857    c0.343-0.202,0.735-0.303,1.188-0.303c0.643,0,1.166,0.196,1.572,0.589c0.405,0.393,0.631,0.926,0.678,1.6l0.01,0.325    c0,0.729-0.203,1.315-0.611,1.756c-0.406,0.441-0.953,0.661-1.639,0.661s-1.232-0.22-1.641-0.659    c-0.41-0.439-0.613-1.037-0.613-1.793V47.751z M300.258,47.842c0,0.452,0.084,0.797,0.254,1.036    c0.17,0.239,0.414,0.359,0.73,0.359c0.307,0,0.547-0.118,0.721-0.354c0.172-0.236,0.26-0.614,0.26-1.133    c0-0.443-0.088-0.786-0.26-1.03c-0.174-0.244-0.416-0.365-0.73-0.365c-0.311,0-0.551,0.121-0.721,0.363    C300.342,46.959,300.258,47.334,300.258,47.842z"/>
		<path d="M307.072,46.609c-0.174-0.023-0.326-0.035-0.457-0.035c-0.482,0-0.797,0.163-0.945,0.488v3.111h-1.27v-4.755h1.199    l0.034,0.567c0.255-0.437,0.607-0.655,1.06-0.655c0.141,0,0.272,0.019,0.396,0.057L307.072,46.609z"/>
		<path d="M307.617,47.76c0-0.741,0.166-1.332,0.5-1.771c0.332-0.439,0.787-0.659,1.363-0.659c0.463,0,0.846,0.173,1.147,0.519    v-2.426h1.272v6.75h-1.146l-0.062-0.505c-0.316,0.396-0.723,0.593-1.221,0.593c-0.562,0-1.011-0.22-1.349-0.661    S307.617,48.545,307.617,47.76z M308.889,47.851c0,0.447,0.076,0.79,0.232,1.029c0.154,0.238,0.381,0.357,0.676,0.357    c0.393,0,0.67-0.166,0.832-0.499v-1.885c-0.158-0.333-0.434-0.499-0.822-0.499C309.193,46.354,308.889,46.853,308.889,47.851z"/>
	</g>
	<g fill="white">
		<path d="M186.154,124.107c-0.049,0.688-0.303,1.229-0.762,1.627c-0.459,0.395-1.062,0.593-1.812,0.593    c-0.82,0-1.465-0.276-1.936-0.828c-0.472-0.552-0.705-1.312-0.705-2.274v-0.391c0-0.615,0.106-1.158,0.324-1.627    c0.217-0.469,0.526-0.828,0.93-1.078c0.402-0.251,0.871-0.376,1.404-0.376c0.737,0,1.332,0.198,1.782,0.593    c0.451,0.396,0.713,0.951,0.783,1.666h-1.317c-0.033-0.412-0.146-0.713-0.347-0.898c-0.196-0.186-0.498-0.278-0.901-0.278    c-0.439,0-0.769,0.158-0.986,0.474c-0.219,0.314-0.33,0.803-0.336,1.465v0.483c0,0.691,0.104,1.196,0.313,1.517    c0.209,0.318,0.539,0.479,0.99,0.479c0.405,0,0.711-0.092,0.912-0.277c0.2-0.187,0.313-0.475,0.344-0.865h1.319V124.107z"/>
		<path d="M188.355,122.003c0.338-0.403,0.762-0.606,1.271-0.606c1.031,0,1.554,0.601,1.567,1.797v3.047h-1.27v-3.018    c0-0.272-0.059-0.476-0.176-0.605c-0.117-0.131-0.312-0.196-0.586-0.196c-0.371,0-0.641,0.146-0.809,0.433v3.388h-1.271v-6.75    h1.271v2.512H188.355z"/>
		<path d="M195.016,126.238c-0.059-0.113-0.102-0.256-0.129-0.426c-0.307,0.344-0.707,0.515-1.199,0.515    c-0.465,0-0.852-0.136-1.158-0.404c-0.305-0.271-0.459-0.608-0.459-1.021c0-0.504,0.188-0.891,0.562-1.159    s0.914-0.405,1.619-0.409h0.584v-0.271c0-0.221-0.056-0.396-0.168-0.526c-0.112-0.134-0.291-0.198-0.535-0.198    c-0.213,0-0.381,0.053-0.502,0.153c-0.121,0.104-0.185,0.243-0.185,0.422h-1.27c0-0.274,0.086-0.529,0.256-0.765    c0.17-0.234,0.41-0.418,0.721-0.551c0.312-0.135,0.658-0.201,1.045-0.201c0.587,0,1.052,0.147,1.396,0.441    c0.344,0.295,0.516,0.709,0.516,1.242v2.061c0.002,0.451,0.066,0.793,0.189,1.023v0.074H195.016L195.016,126.238z     M193.965,125.355c0.188,0,0.359-0.041,0.518-0.125s0.275-0.195,0.353-0.336v-0.817h-0.476c-0.635,0-0.973,0.22-1.014,0.659    l-0.006,0.074c0,0.157,0.057,0.289,0.168,0.392S193.771,125.355,193.965,125.355z"/>
		<path d="M198.711,120.314v1.17h0.814v0.932h-0.814v2.373c0,0.176,0.035,0.302,0.102,0.378c0.068,0.076,0.197,0.114,0.388,0.114    c0.141,0,0.266-0.01,0.373-0.031v0.963c-0.248,0.076-0.505,0.114-0.769,0.114c-0.891,0-1.346-0.45-1.363-1.349v-2.562h-0.692    v-0.932h0.692v-1.17H198.711z"/>
		<path d="M201.629,122.003c0.338-0.403,0.762-0.606,1.271-0.606c1.031,0,1.553,0.601,1.567,1.797v3.047h-1.271v-3.018    c0-0.272-0.059-0.476-0.176-0.605c-0.117-0.131-0.312-0.196-0.586-0.196c-0.371,0-0.641,0.146-0.809,0.433v3.388h-1.27v-6.75h1.27    v2.512H201.629z"/>
		<path d="M208.289,126.238c-0.059-0.113-0.102-0.256-0.129-0.426c-0.307,0.344-0.707,0.515-1.199,0.515    c-0.465,0-0.852-0.136-1.158-0.404c-0.305-0.271-0.459-0.608-0.459-1.021c0-0.504,0.188-0.891,0.561-1.159    c0.373-0.269,0.914-0.405,1.619-0.409h0.584v-0.271c0-0.221-0.055-0.396-0.168-0.526c-0.112-0.134-0.291-0.198-0.535-0.198    c-0.213,0-0.381,0.053-0.502,0.153c-0.12,0.104-0.184,0.243-0.184,0.422h-1.27c0-0.274,0.086-0.529,0.256-0.765    c0.17-0.234,0.41-0.418,0.721-0.551c0.311-0.135,0.658-0.201,1.045-0.201c0.586,0,1.051,0.147,1.396,0.441    c0.344,0.295,0.516,0.709,0.516,1.242v2.061c0.002,0.451,0.066,0.793,0.189,1.023v0.074H208.289L208.289,126.238z     M207.238,125.355c0.188,0,0.359-0.041,0.518-0.125s0.275-0.195,0.352-0.336v-0.817h-0.475c-0.635,0-0.973,0.22-1.014,0.659    l-0.006,0.074c0,0.157,0.057,0.289,0.168,0.392S207.045,125.355,207.238,125.355z"/>
		<path d="M211.672,121.484l0.039,0.531c0.336-0.412,0.793-0.619,1.367-0.619c0.611,0,1.031,0.242,1.26,0.725    c0.334-0.482,0.811-0.725,1.43-0.725c0.517,0,0.898,0.149,1.15,0.449c0.252,0.301,0.379,0.754,0.379,1.356v3.036h-1.275V123.2    c0-0.271-0.053-0.468-0.158-0.593c-0.104-0.125-0.291-0.188-0.559-0.188c-0.381,0-0.645,0.183-0.791,0.547l0.006,3.272h-1.271    v-3.034c0-0.277-0.054-0.478-0.162-0.601c-0.106-0.123-0.293-0.186-0.553-0.186c-0.361,0-0.621,0.15-0.783,0.449v3.369h-1.271    v-4.754h1.191V121.484z"/>
		<path d="M220.889,124.012h-2.473v-1.023h2.473V124.012z"/>
		<path d="M194.129,132.673l-0.686,0.738v1.828h-1.318v-6.398h1.318v2.9l0.58-0.796l1.631-2.104h1.621l-2.271,2.843l2.338,3.557    h-1.568L194.129,132.673z"/>
		<path d="M199.861,135.327c-0.697,0-1.266-0.214-1.703-0.642c-0.438-0.429-0.656-0.998-0.656-1.709v-0.123    c0-0.479,0.092-0.904,0.277-1.281c0.184-0.377,0.445-0.666,0.783-0.87s0.725-0.306,1.158-0.306c0.649,0,1.161,0.205,1.534,0.615    c0.375,0.409,0.562,0.991,0.562,1.743v0.521h-3.027c0.041,0.311,0.164,0.559,0.371,0.746c0.207,0.187,0.469,0.281,0.785,0.281    c0.488,0,0.871-0.178,1.146-0.531l0.625,0.699c-0.19,0.27-0.448,0.479-0.772,0.629    C200.617,135.252,200.258,135.327,199.861,135.327z M199.717,131.42c-0.252,0-0.457,0.086-0.613,0.256    c-0.156,0.172-0.258,0.416-0.301,0.733h1.766v-0.103c-0.006-0.281-0.082-0.5-0.229-0.654S199.986,131.42,199.717,131.42z"/>
		<path d="M203.887,130.484l0.039,0.549c0.34-0.424,0.797-0.637,1.367-0.637c0.504,0,0.879,0.147,1.125,0.442    c0.246,0.297,0.371,0.738,0.379,1.328v3.071h-1.271v-3.049c0-0.271-0.059-0.467-0.176-0.588s-0.311-0.184-0.584-0.184    c-0.356,0-0.625,0.152-0.805,0.459v3.359h-1.27v-4.754h1.195V130.484z"/>
		<path d="M209.393,129.314v1.17h0.814v0.932h-0.814v2.373c0,0.176,0.035,0.302,0.103,0.378s0.196,0.114,0.387,0.114    c0.142,0,0.267-0.01,0.373-0.031v0.963c-0.248,0.076-0.504,0.114-0.769,0.114c-0.891,0-1.346-0.45-1.362-1.349v-2.562h-0.692    v-0.932h0.692v-1.17H209.393z"/>
	</g>

</g>
<path d="M74.088,174.218l-0.231-0.884l0.589-0.152l-0.323-0.914l-0.759,0.152l-0.068-0.21l-1.344,0.8l-1.021-0.398h-0.617v0.342h-1  v-0.352c-0.124,0.096-0.251,0.192-0.402,0.342c-0.104,0.105-0.274,0.115-0.38,0.22c-0.154,0.144-0.237,0.371-0.401,0.534  c-0.113,0.113-0.228,0.236-0.417,0.285c-0.189,0.065-0.505,0.047-0.658,0.189c-0.182,0.172-0.246,0.486-0.246,0.914  c0,0.419,0.064,0.658-0.097,0.973c-0.085,0.133-0.181,0.17-0.274,0.256c-0.029,0.028-0.039,0.086-0.098,0.105  c-0.081,0.053-0.171,0.053-0.249,0.018c-0.13-0.058-0.235-0.209-0.235-0.352c-0.304,0-0.41,0.275-0.523,0.533  c-0.135,0.277-0.162,0.381-0.268,0.725c-0.037,0.104,0.029,0.229-0.059,0.305c-0.029,0.031-0.068,0.055-0.11,0.074  c-0.151,0.074-0.34,0.112-0.392,0.336c-0.115,0.075-0.172,0.17-0.191,0.295c-0.066,0.199-0.218,0.313-0.104,0.629  c0.047,0.219-0.02,0.467,0.181,0.522c0.094,0.087,0.21,0.087,0.344,0.144c0.143,0.143,0.379,0.22,0.608,0.134  c0-0.267,0.485-0.324,0.781-0.238c0.218,0.104,0.171,0.457,0.382,0.457c0-0.285,0.08-0.495,0.275-0.711  c0.026-0.029,0.055-0.06,0.086-0.089c0.065-0.124,0.076-0.229,0.189-0.305c0.22-0.114,0.364-0.162,0.494-0.297  c0.27-0.134,0.374-0.199,0.754-0.313c0.209,0,0.334-0.058,0.533-0.058c0.152,0,0.322-0.076,0.322-0.219  c0-0.438,0.269-0.609,0.526-0.809c0-0.105,0.058-0.186,0.129-0.252c0.06-0.057,0.128-0.107,0.184-0.158  c0.117-0.124,0.181-0.268,0.372-0.334c0.066-0.008,0.145,0,0.211-0.037c0.182-0.096,0.229-0.172,0.409-0.295  c0.104-0.066,0.172-0.077,0.278-0.105h0.512c0.57,0,1.047,0.028,1.584,0.028c0.024,0.005,0.049,0.011,0.072,0.015l0.004-1.234  l0.77-0.148L74.088,174.218z"/>
</svg>
