<!DOCTYPE svg PUBLIC "-//W3C//DTD SVG 1.1//EN" "http://www.w3.org/Graphics/SVG/1.1/DTD/svg11.dtd">
<svg xmlns="http://www.w3.org/2000/svg" xmlns:xlink="http://www.w3.org/1999/xlink" version="1.1" id="windsor_svg" x="0px" y="0px" viewBox="0 0 1407.419 1000.224" enable-background="new 0 0 1407.419 1000.224" xml:space="preserve" aspectratio="1.407">
<path fill-rule="evenodd" clip-rule="evenodd" d="M1304.168,637.824c0.106,0.91,0.104,1.535,0.26,2.118  c1.448,5.404,2.91,10.804,4.397,16.197c0.719,2.606,0.746,2.599,3.507,3.95c0.062,0.147,0.135,0.292,0.181,0.444  c0.045,0.15,0.089,0.31,0.085,0.464c-0.036,1.279-0.044,2.56-0.133,3.835c-6.138,87.916-12.282,175.831-18.431,263.746  c-0.033,0.477-0.12,0.954-0.228,1.421c-0.071,0.307-0.227,0.594-0.438,1.126c-0.976,0.058-2.063,0.228-3.137,0.167  c-5.749-0.328-11.495-0.707-17.241-1.079c-19.633-1.271-39.267-2.529-58.897-3.828c-16.917-1.119-33.834-2.254-50.746-3.448  c-9.092-0.643-18.193-1.233-27.255-2.188c-13.683-1.44-27.275-3.529-40.486-7.518c-3.651-1.103-7.276-2.464-10.692-4.154  c-26.791-13.256-53.536-26.603-80.269-39.976c-2.9-1.451-5.858-2.597-9.081-2.825c-2.008-0.143-3.675-0.925-5.331-1.937  c-2.592-1.585-5.261-3.044-7.829-4.664c-1.687-1.064-3.435-1.562-5.432-1.516c-3.357,0.079-6.721-0.053-10.078,0.041  c-3.233,0.09-6.324-0.41-9.44-1.303c-3.187-0.913-6.292-2.302-9.928-2.462c-0.89,2.06-0.445,4.129-0.508,6.122  c-0.07,2.237-0.016,4.479-0.016,6.719c0,2.072,0,4.145,0,6.4c-1.278,0.561-2.392,1.147-3.567,1.549  c-10.887,3.717-21.77,7.447-32.686,11.076c-5.778,1.92-11.45,4.081-16.787,7.01c-2.072,1.137-4.094,1.662-6.413,1.215  c-1.253-0.241-2.543-0.449-3.812-0.42c-6.893,0.16-13.146-1.929-19.321-4.823c-16.661-7.809-34.132-13.598-51.311-20.106  c-21.815-8.266-43.691-16.373-65.564-24.484c-3.588-1.331-7.289-2.363-10.955-3.477c-6.89-2.093-13.722-4.363-20.16-7.607  c-3.414-1.721-6.69-3.739-9.917-5.798c-2.892-1.846-4.923-4.446-6.299-7.657c-4.723-11.021-9.613-21.97-14.352-32.984  c-25.021-58.155-50.018-116.321-75.015-174.487c-0.617-1.436-1.14-2.912-1.78-4.562c5.926-0.758,11.478-1.404,17.011-2.188  c13.949-1.979,27.721-4.74,41.012-9.557c4.366-1.582,8.582-3.464,12.617-5.792c8.194-4.727,16.916-8.312,25.768-11.591  c20.113-7.451,40.738-13.196,61.591-18.097c18.665-4.388,37.428-8.362,56.135-12.572c7.014-1.578,13.967-3.436,20.999-4.923  c5.31-1.122,10.677-2.05,16.061-2.72c9.519-1.185,19.098-1.906,28.599-3.204c7.277-0.995,14.495-2.473,21.702-3.923  c18.33-3.69,36.564-7.803,54.699-12.375c6.963-1.756,14.093-2.843,21.136-4.287c23.802-4.882,47.349-10.835,70.831-17.038  c39.859-10.529,79.488-21.867,118.894-33.981c6.714-2.064,13.29-4.576,19.957-6.798c23.972-7.989,48.368-14.464,72.968-20.182  c9.182-2.134,18.424-4.01,27.631-6.035c12.32-2.708,22.916-8.4,32.033-17.28c13.521-13.169,27.447-25.921,41.218-38.833  c0.78-0.731,1.71-1.303,2.588-1.963c0.884,1.262,0.894,2.296,0.155,3.294c-0.57,0.771-1.211,1.489-1.809,2.239  c-10.079,12.631-15.293,27.147-17.009,43.112c-1.037,9.658,0.044,19.15,1.403,28.663c1.854,12.979,3.652,25.966,5.483,38.949  c0.804,5.699,1.639,11.394,2.432,17.094c0.129,0.926,0.115,1.871,0.181,3.055c-1.24,0.158-2.306,0.404-3.372,0.41  c-6.56,0.037-13.119,0.008-19.679,0.03c-1.573,0.006-3.146,0.126-5.073,0.208c0.241,2.285,0.373,4.305,0.676,6.299  c3.363,22.129,6.759,44.254,10.134,66.381c1.639,10.748,3.265,21.498,4.863,32.251c0.251,1.695,0.793,3.502-1.301,4.649  c-0.394,0.216-0.473,1.12-0.572,1.728c-0.152,0.928-0.197,1.874-0.317,3.126C1333.959,630.399,1319.007,633.644,1304.168,637.824z"/>
<path fill-rule="evenodd" clip-rule="evenodd" d="M119.651,500.449c3.517,0.741,37.412,15.072,44.821,18.933  c0.646,2.359,0.363,4.929,0.301,7.45c-0.065,2.636,0.527,4.998,1.682,7.363c10.869,22.27,21.662,44.577,32.527,66.849  c0.83,1.701,1.904,3.332,3.112,4.789c2.949,3.557,6.044,6.992,8.986,10.367c0.585-0.142,1.006-0.111,1.147-0.296  c5.812-7.586,13.858-10.461,23.033-10.902c7.133-0.344,14.039,1.029,20.712,3.363c6.633,2.32,13.151,4.973,19.687,7.562  c30.603,12.126,61.202,24.262,91.776,36.46c2.729,1.089,5.428,1.676,8.366,1.604c4.797-0.119,9.602-0.14,14.398,0.003  c3.57,0.106,6.993-0.32,10.341-1.57c1.471-0.549,3.024-0.88,4.834-1.394c3.278,6.749,5.777,13.635,8.635,20.359  c2.939,6.915,5.76,13.88,8.633,20.823c2.812,6.796,5.622,13.591,8.437,20.386c2.807,6.776,5.617,13.551,8.431,20.34  c2.155,0.198,3.573-0.993,5.091-1.721c13.402-6.43,26.768-12.932,40.165-19.37c2.3-1.105,4.66-2.109,7.054-2.993  c19.478-7.19,36.638-18.085,51.751-32.265c1.166-1.094,2.373-2.173,3.371-3.412c3.277-4.067,7.409-7.074,11.933-9.516  c6.662-3.595,12.704-8.05,18.359-13.014c6.611-5.802,13.135-11.712,19.498-17.782c2.694-2.571,5.509-4.828,8.809-6.524  c1.969-1.012,3.877-2.14,5.731-3.17c1.705,1.134,1.952,2.812,2.567,4.239c8.041,18.645,16.047,37.304,24.069,55.956  c18.507,43.034,37.016,86.066,55.536,129.095c1.327,3.084,2.841,6.089,4.112,9.194c1.513,3.695,4.078,6.45,7.24,8.749  c3.901,2.834,8.095,5.185,12.55,6.977c5.629,2.264,11.265,4.605,17.077,6.294c8.304,2.411,16.379,5.414,24.457,8.435  c28.587,10.687,57.188,21.339,85.725,32.157c7.613,2.885,15.082,6.178,22.501,9.54c4.165,1.889,8.382,3.015,12.946,3.061  c1.655,0.017,3.47-0.213,5.181,1.207c-0.79,0.618-1.37,1.137-2.012,1.563c-5.207,3.471-9.939,7.52-14.565,11.72  c-27.721,25.163-55.472,50.292-83.217,75.428c-1.062,0.961-2.164,1.879-3.161,2.742c-0.486-0.094-0.889-0.049-1.089-0.229  c-2.93-2.626-6.365-3.289-10.203-3.033c-3.345,0.223-6.719-0.024-10.076,0.068c-2.607,0.073-5.048-0.431-7.489-1.319  c-10.06-3.663-20.161-7.212-30.217-10.884c-2.239-0.817-4.448-1.806-6.521-2.979c-69.42-39.322-138.818-78.683-208.231-118.017  c-6.458-3.659-12.362-7.979-17.12-13.729c-4.552-5.502-7.931-11.598-9.275-18.704c-0.144-0.758-0.512-1.474-0.823-2.341  c-6.149-0.407-12.196-0.82-18.244-1.207c-13.249-0.849-26.5-1.681-39.749-2.523c-5.747-0.366-11.492-0.761-17.24-1.109  c-12.454-0.757-24.91-1.473-37.363-2.241c-15.007-0.927-30.015-1.849-45.014-2.894c-1.857-0.129-3.724-0.836-5.482-1.536  c-18.262-7.27-36.5-14.595-54.75-21.896c-1.75-0.7-3.526-1.339-5.701-2.161c-1.805,15.754-2.763,31.154-4.465,47.18  c-5.876-4.204-10.799-8.249-15.846-12.122c-5.068-3.889-10.104-7.82-14.981-11.601c-1.409,0.293-1.266,1.187-1.309,1.938  c-0.65,11.338-1.292,22.677-1.928,34.016c-0.367,6.548-0.71,13.098-1.095,19.645c-0.054,0.911-0.287,1.811-0.495,3.067  c-1.206-0.364-2.094-0.584-2.948-0.897c-24.656-9.057-201.708-78.98-206.2-81.473c0.349-0.804,0.633-1.684,1.088-2.463  c1.13-1.932,2.264-3.869,3.529-5.713c3.908-5.695,7.178-11.718,9.55-18.212c0.853-2.334,1.865-4.343,4.757-4.737  c1.478-0.201,2.41-1.477,3.113-2.792c2.181-4.082,4.56-8.05,5.681-12.64c0.909-3.721,2.106-7.379,3.326-11.015  c1.117-3.331,1.465-6.554-0.712-9.84c0.563-1.609,1.102-3.265,1.72-4.89c2.555-6.725,5.176-13.424,7.674-20.169  c0.639-1.725,1.536-3.176,3.022-4.196c2.263-1.555,3.211-3.791,3.909-6.35c1.132-4.154,2.216-8.374,3.905-12.315  c4.297-10.023,7.396-20.431,10.54-30.835c2.542-8.414,5-16.853,8.517-24.94c2.486-5.716,4.775-11.517,7.167-17.273  c2.144-5.162,4.227-10.353,6.489-15.463c1.701-3.843,2.439-7.933,3.52-11.94c0.789-2.926,1.597-5.856,2.602-8.713  c3.021-8.593,6.625-16.976,9.085-25.773c0.596-2.133,1.59-4.198,2.679-6.139c2.209-3.937,3.74-8.115,4.988-12.426  c0.667-2.303,1.354-4.601,2.104-6.878C117.421,504.572,118.194,502.309,119.651,500.449z"/>
<path fill-rule="evenodd" clip-rule="evenodd" d="M818.77,546.176c-4.892,1.135-9.065,2.165-13.268,3.067  c-19.531,4.194-39.084,8.297-58.367,13.552c-17.739,4.834-35.371,10.014-52.338,17.181c-5,2.112-10.034,4.265-14.716,6.979  c-7.968,4.621-16.474,7.758-25.282,10.154c-12.519,3.405-25.271,5.611-38.169,6.987c-3.808,0.406-7.618,0.789-11.719,1.214  c0.187,0.876,0.244,1.797,0.578,2.604c1.585,3.832,3.245,7.632,4.994,11.713c-1.144,0.814-2.063,1.686-3.15,2.207  c-6.139,2.945-11.223,7.199-16.021,11.99c-7.019,7.008-14.424,13.63-22.373,19.587c-3.317,2.485-6.812,4.769-10.386,6.873  c-5.269,3.102-10.011,6.698-14.273,11.175c-10.791,11.333-23.444,20.298-37.363,27.396c-5.397,2.752-11.092,4.919-16.656,7.344  c-2.342,1.021-4.733,1.934-7.035,3.037c-12.394,5.944-24.765,11.938-37.148,17.903c-1.42,0.684-2.872,1.304-4.301,1.95  c-0.478-0.572-0.89-0.883-1.061-1.295c-35.001-84.479-69.985-168.966-105.074-253.704c1.051-0.644,1.906-1.294,2.859-1.73  c6.248-2.862,12.534-5.642,18.77-8.528c2.022-0.937,4.024-1.976,5.881-3.202c12.947-8.545,25.95-17.012,38.727-25.806  c5.382-3.704,10.245-8.159,15.375-12.233c1.366-1.084,2.759-2.193,4.293-3c8.914-4.685,17.91-9.215,26.8-13.946  c3.512-1.869,7.169-1.491,10.747-0.993c1.964,0.273,3.841,1.631,4.916,3.56c1.165,2.09,2.364,4.18,3.309,6.373  c3.099,7.195,6.085,14.438,9.124,21.658c0.553,1.313,1.151,2.608,1.829,4.135c1.776-0.292,3.444-0.567,5.389-0.888  c0.556,1.549,1.093,3.017,1.611,4.491c1.973,5.605,4.467,10.956,7.804,15.889c2.706,3.999,5.852,7.604,9.665,10.594  c6.8,5.331,14.514,7.976,23.16,7.751c2.556-0.067,5.104-0.362,7.657-0.543c0.962-0.068,2.04-0.192,2.441,0.948  c0.479,1.357,1.475,1.542,2.654,1.442c3.505-0.299,7.01-0.613,10.513-0.937c8.759-0.812,17.518-1.622,26.274-2.451  c9.877-0.936,19.716-1.501,29.683-0.73c14.986,1.159,30.028,1.583,45.044,2.373c15.176,0.798,30.348,1.664,45.521,2.494  c6.709,0.367,13.417,0.734,20.127,1.071c15.178,0.763,30.357,1.48,45.533,2.268c9.905,0.515,19.805,1.119,29.705,1.695  c0.632,0.037,1.257,0.178,2.214,0.318C801.654,505.902,810.083,525.736,818.77,546.176z"/>
<path fill-rule="evenodd" clip-rule="evenodd" d="M167.424,517.099c-15.352-6.622-30.713-13.249-46.234-19.944  c1.012-4.668,2.389-8.864,4.325-12.89c2.007-4.173,3.931-8.386,5.964-12.545c1.109-2.269,2.37-4.463,3.572-6.71  c1.796,0.717,3.271,1.306,4.938,1.971c2.535-3.01,3.526-6.741,5.387-9.965c-0.97-1.994-3.105-1.832-4.599-3.232  c-0.724-1.143-0.233-2.471,0.573-3.721c2.165-3.357,4.227-6.793,6.579-10.015c10.938-14.981,21.955-29.904,32.963-44.833  c0.945-1.281,1.986-2.502,3.077-3.663c3.953-4.208,7.617-8.569,9.769-14.067c1.523-3.891,4.189-7.128,6.784-10.46  c2.636,0.592,4.344,2.73,6.912,3.75c2.148-1.093,2.993-3.415,4.565-5.435c-0.7-0.712-1.273-1.452-1.993-1.997  c-1.644-1.245-3.359-2.396-5.108-3.628c0.364-2.964,1.968-5.188,3.376-7.445c2.031-3.253,4.247-6.392,6.405-9.565  c3.957-5.817,7.955-11.607,11.884-17.443c1.93-2.866,4.066-5.024,7.854-5.597c3.65-0.552,5.823-3.306,6.008-7.094  c0.218-4.45,2.342-7.461,6.197-9.491c2.322-1.223,3.851-3.326,5.417-5.355c0.96-1.245,1.928-2.483,3.11-4.006  c0.893,0.915,1.63,1.474,2.116,2.202c1.853,2.778,3.625,5.61,5.548,8.612c1.015-0.583,1.789-1.028,2.717-1.562  c-1.803-4.308-4.717-7.784-6.625-11.969c3.443-4.198,7.785-7.153,12.341-9.744c15.978-9.083,31.984-18.117,48.059-27.026  c5.721-3.171,11.673-5.923,17.512-8.883c4.418-2.24,8.822-4.509,13.234-6.76c2.418-1.234,4.899-2.261,7.982-2.377  c1.569,3.093,3.146,6.203,4.805,9.473c1.167-0.232,2.201-0.438,3.148-0.626c1.154,0.473,7.883,13.481,11.066,21.266  c-0.54,0.688-1.109,1.413-1.85,2.355c8.586,20.237,17.193,40.525,25.803,60.812c8.548,20.144,17.1,40.287,25.741,60.645  c-1.625,1-3.065,1.887-4.75,2.923c2.28,6.31,5.6,12.124,7.938,18.643c-2.762,1.464-5.241,2.887-7.813,4.113  c-3.209,1.53-5.935,3.62-8.585,6c-3.916,3.518-8.038,6.871-12.387,9.831c-13.217,8.993-26.576,17.778-39.908,26.602  c-1.589,1.052-3.307,1.939-5.042,2.736c-6.97,3.198-13.974,6.321-20.954,9.498c-1.125,0.512-2.189,1.157-3.559,1.888  c12.173,29.431,24.258,58.65,36.343,87.87c12.032,29.088,24.064,58.176,36.175,87.452c-3.648,1.795-7.225,3.167-11.067,3.276  c-6.233,0.177-12.475-0.007-18.712,0.08c-2.007,0.027-3.755-0.648-5.532-1.354c-20.194-8.012-40.385-16.03-60.578-24.046  c-15.292-6.07-30.578-12.159-45.882-18.202c-8.997-3.554-18.239-5.895-28.026-5.387c-8.074,0.42-15.353,2.843-21.407,8.403  c-0.351,0.321-0.748,0.593-1.39,1.097c-0.65-0.539-1.395-1.053-2.015-1.688c-4.624-4.727-8.082-10.163-10.928-16.175  c-9.437-19.935-19.144-39.742-28.857-59.544c-1.386-2.826-2.046-5.624-1.979-8.738C167.887,522.728,168.196,519.995,167.424,517.099  z"/>
<path fill-rule="evenodd" clip-rule="evenodd" d="M1158.075,36.379c6.11,1.965,11.594,4.08,17.308,6.3  c0.117,2.538,0.234,5.056,0.348,7.512c1.404,1.195,2.768,0.832,4.069,0.54c0.224-0.375,0.491-0.626,0.519-0.902  c0.171-1.718,0.288-3.441,0.422-5.161c0.267,0.024,19.65-0.159,19.837-0.19c0.348,0.791,0.713,1.621,1.215,2.762  c2.576,0,5.286,0.102,7.986-0.027c2.899-0.139,5.324,0.557,7.215,2.913c1.667,2.078,4.067,3.16,6.535,3.8  c5.859,1.521,10.804,4.642,15.529,8.25c1.905,1.455,3.911,2.776,5.873,4.157c2.099,1.477,4.168,2.891,6.958,2.842  c1.021-0.018,2.11,0.647,3.075,1.174c2.666,1.454,5.276,3.009,7.92,4.503c0.809,0.457,1.653,0.85,2.667,1.367  c0.988-1.285,1.838-2.39,2.839-3.691c1.334,0.348,2.709,0.641,4.043,1.065c18.873,6.013,37.756,11.994,56.598,18.104  c4.734,1.535,9.445,2.856,14.463,3.047c4.791,0.182,9.571,0.64,14.358,0.956c0.3,0.02,0.612-0.146,1.097-0.271  c1.469-2.521-0.154-5.592,1.141-8.484c2.604-0.429,5.249-0.425,8.022,0.05c0.267,1.002,0.601,1.898,0.739,2.824  c10.045,67.172,20.073,134.347,30.146,201.805c-1.006,0.099-1.777,0.322-2.506,0.225c-10.456-1.401-20.906-2.847-31.358-4.276  c-2.504-0.342-5.01-0.675-7.306-0.701c-0.346,0.379-0.481,0.478-0.544,0.61c-0.065,0.139-0.104,0.317-0.082,0.468  c3.521,25.331,7.045,50.661,10.585,75.989c0.109,0.782,0.393,1.539,0.566,2.2c4.739,3.427,4.755,3.443,0.658,7.293  c-13.286,12.487-26.586,24.961-39.881,37.44c-0.933,0.876-1.912,1.707-2.795,2.63c-8.593,8.983-19.223,14.131-31.267,16.59  c-30.076,6.14-59.815,13.608-89.171,22.591c-1.365,0.417-2.745,0.784-4.431,1.262c-0.188-2.114-0.353-3.985-0.554-6.253  c-1.918-1.476-4.048-3.115-6.398-4.923c-0.03-1.983-0.153-4.048-0.069-6.104c0.105-2.602-0.361-5.068-1.188-7.521  c-3.929-11.661-7.802-23.341-11.737-35c-0.372-1.101-0.642-2.116-0.19-3.239c0.909-2.265,0.499-4.463-0.717-6.434  c-1.241-2.013-1.521-3.765,0.284-5.592c0.533-0.539,0.881-1.35,1.096-2.099c0.917-3.192-0.139-5.512-3.181-7.02  c-2.129-1.055-4.301-2.026-6.662-3.133c-0.042-2.661-0.157-5.199-0.098-7.733c0.054-2.291-0.378-4.396-1.392-6.474  c-2.595-5.314-5.128-10.661-7.541-16.06c-0.876-1.96-2.011-3.201-4.257-3.188c-0.467,0.002-0.947-0.156-1.401-0.302  c-2.173-0.698-2.928-2.526-1.583-4.483c1.758-2.558,2.822-5.36,3.591-8.312c0.49-1.881,1.494-3.093,3.565-3.316  c1.264-0.136,2.515-0.464,3.745-0.803c1.38-0.379,2.755-0.803,4.088-1.322c2.536-0.985,4.333-2.706,4.875-5.468  c0.386-1.962,1.337-3.537,2.821-4.866c4.231-3.79,4.092-8.395,2.219-13.183c-1.514-3.869-3.238-7.655-4.869-11.478  c-0.376-0.882-0.754-1.764-1.122-2.65c-1.188-2.86-0.499-5.334,1.641-7.437c1.736-1.706,3.821-2.864,6.129-3.646  c1.511-0.512,3.052-0.984,4.479-1.68c4.292-2.094,6.394-5.649,6.494-10.374c0.062-2.922-0.332-5.893-2.053-8.251  c-2.272-3.116-3.074-6.664-3.688-10.254c-1.376-8.035-2.523-16.109-3.751-24.168c-2.119-13.907-4.239-27.813-6.34-41.723  c-2.077-13.752-4.127-27.508-6.198-41.261c-2.024-13.437-4.06-26.871-6.093-40.306c-2.128-14.067-4.276-28.132-6.376-42.204  C1158.614,42.871,1157.827,40.081,1158.075,36.379z"/>
<path fill-rule="evenodd" clip-rule="evenodd" d="M821.944,545.494c-0.823-1.793-1.518-3.213-2.135-4.664  c-35.695-83.997-71.385-167.996-107.076-251.994c-17.189-40.454-34.369-80.913-51.603-121.348c-1.456-3.417-2.32-6.911-2.752-10.895  c1.148-0.27,2.165-0.647,3.205-0.729c4.941-0.388,9.89-0.692,14.835-1.037c0.933-0.065,1.861-0.183,3.15-0.312  c-0.136-1.292-0.078-2.382-0.387-3.356c-0.765-2.412-1.698-4.771-2.481-6.925c0.696-1.244,1.571-0.917,2.293-0.91  c15.191,0.143,30.383,0.306,45.573,0.48c0.954,0.011,2-0.076,2.845,0.27c2.821,1.156,5.552,0.73,8.441,0.224  c3.29-0.576,6.681-0.599,10.031-0.797c7.503-0.445,15.009-0.841,22.513-1.272c6.865-0.395,13.73-0.794,20.593-1.228  c1.264-0.08,2.517-0.334,3.869-0.521c0.286-1.169,0.546-2.229,0.886-3.614c0.989-0.029,2.139-0.346,3.085-0.039  c3.028,0.982,5.935,0.646,8.959-0.046c7.475-1.711,14.989-3.247,22.492-4.832c0.452-0.096,0.943-0.013,1.618-0.013  c1.325,1.3,1.755,3.215,2.471,4.94c13.103,31.595,26.169,63.205,39.253,94.809c38.148,92.15,76.303,184.299,114.447,276.452  c0.665,1.606,1.232,3.253,1.916,5.069c-1.987,0.778-3.821,1.166-5.677,1.515c-4.082,0.766-8.183,1.46-12.232,2.376  c-8.1,1.832-16.142,3.923-24.257,5.675c-17.334,3.742-34.657,7.554-52.069,10.893c-7.986,1.532-16.159,2.169-24.273,2.938  c-12.439,1.178-24.69,3.308-36.779,6.446C829.311,543.927,825.871,544.606,821.944,545.494z"/>
<path fill-rule="evenodd" clip-rule="evenodd" d="M1188.708,258.446c-0.641,2.129-2.354,2.75-3.913,3.466  c-1.156,0.531-2.481,0.707-3.606,1.284c-2.119,1.088-4.342,2.111-6.173,3.592c-3.863,3.123-4.755,6.993-2.914,11.591  c1.544,3.857,3.249,7.65,4.87,11.477c0.499,1.177,1.06,2.342,1.406,3.565c0.922,3.258,0.839,6.335-2.006,8.755  c-1.893,1.61-3.127,3.588-3.534,6.079c-0.283,1.729-1.396,2.859-2.978,3.479c-1.33,0.522-2.698,0.963-4.076,1.347  c-1.229,0.342-2.483,0.621-3.744,0.813c-3.035,0.464-4.807,2.082-5.459,5.165c-0.595,2.814-1.76,5.4-3.435,7.839  c-2.405,3.503-0.536,7.84,3.591,8.954c0.461,0.125,0.944,0.168,1.412,0.273c0.462,0.103,0.917,0.236,1.619,0.42  c2.811,5.941,5.735,11.967,8.488,18.069c0.565,1.252,0.641,2.788,0.683,4.2c0.097,3.184,0.03,6.373,0.03,9.775  c1.863,0.846,3.599,1.616,5.318,2.42c1.302,0.608,2.618,1.199,3.863,1.911c0.922,0.528,1.284,1.959,0.901,2.979  c-0.111,0.296-0.217,0.629-0.426,0.849c-2.718,2.861-2.844,5.865-0.693,9.129c0.931,1.413,1.019,3.037,0.22,4.58  c-0.659,1.272-0.354,2.433,0.071,3.687c4.058,11.953,8.063,23.923,12.123,35.875c0.782,2.302,1.188,4.619,1.104,7.055  c-0.083,2.388-0.019,4.78-0.019,7.247c1.536,1.152,2.869,2.305,4.348,3.221c1.85,1.146,2.649,2.67,2.375,4.813  c-0.099,0.78-0.099,1.574-0.158,2.612c-1.494,0.593-2.938,1.201-4.406,1.742c-21.458,7.902-43.506,13.921-65.433,20.308  c-33.743,9.829-67.614,19.213-101.754,27.588c-11.015,2.702-22.08,5.201-33.125,7.783c-0.459,0.107-0.941,0.111-1.466,0.169  c-1.58-1.086-1.842-2.94-2.493-4.512c-13.231-31.889-26.416-63.797-39.622-95.696c-28.305-68.378-56.617-136.753-84.923-205.132  c-0.665-1.608-1.271-3.24-2.054-5.244c1.317,0,2.24-0.133,3.115,0.019c24.875,4.323,49.743,8.692,74.617,13.018  c29.599,5.147,59.203,10.262,88.805,15.391c27.555,4.775,55.106,9.562,82.664,14.321c22.991,3.971,45.987,7.908,68.981,11.861  c2.048,0.352,4.101,0.675,6.137,1.087C1187.617,257.79,1188.139,258.174,1188.708,258.446z"/>
<path fill-rule="evenodd" clip-rule="evenodd" d="M937.187,105.14c3.792-0.166,7.453-0.292,11.109-0.5  c1.906-0.108,3.805-0.359,6.003-0.574c0-1.084,0.115-2.001-0.022-2.878c-0.371-2.351-0.851-4.685-1.274-6.954  c1.597-1.468,3.312-1.75,5.071-1.844c1.276-0.068,2.559-0.024,3.838-0.051c3.129-0.064,5.948-0.981,8.469-2.893  c2.154-1.634,4.4-3.145,6.444-4.595c2.38,0.321,3.091,1.937,3.793,3.567c1.897,4.405,3.79,8.812,5.705,13.209  c0.567,1.303,1.201,2.578,1.897,4.064c2.062-0.164,3.64-1.308,5.332-2.059c1.74-0.773,3.416-1.69,5.338-2.653  c-0.189-1-0.24-1.938-0.549-2.783c-1.258-3.455-2.38-6.983-3.954-10.292c-2.08-4.371-0.591-7.656,2.731-10.604  c2.988-2.653,6.019-5.28,9.219-7.667c3.263-2.432,5.952-5.275,8.095-8.73c1.171-1.886,2.699-3.548,4.043-5.329  c0.862-1.142,1.734-2.282,2.514-3.48c4.704-7.24,9.383-14.497,14.069-21.748c1.414-2.187,3.386-3.791,5.637-5.561  c0.521,0.701,1.061,1.237,1.37,1.884c0.756,1.578,1.405,3.207,2.171,4.987c2.255-0.68,3.29-2.487,4.713-3.984  c-0.234-3.161-2.12-5.743-2.689-8.99c1.436-1.785,3.529-2.803,5.854-3.702c2.044,2.829,2.083,6.404,3.805,9.464  c0.616,0.038,1.235,0.162,1.828,0.085c0.434-0.055,0.833-0.373,1.481-0.687c-0.866-3.864-1.729-7.719-2.645-11.802  c1.173-0.458,2.178-0.852,3.44-1.346c0.77,0.961,1.514,1.891,2.345,2.929c3.594-0.954,7.112-1.888,10.791-2.864  c2.239,3.864,2.94,8.221,5.063,12.066c4.32-0.197,8.3-0.789,11.696-3.693c2.18-1.864,4.708-3.316,6.971-5.091  c2.124-1.666,4.381-1.747,6.783-0.974c0.908,0.292,1.83,0.638,2.633,1.138c4.41,2.746,9.221,4.355,14.303,5.275  c3.191,0.578,6.146,1.717,8.957,4.338c0.145,2.568,0.312,5.543,0.489,8.707c1.345,0.06,2.416,0.108,3.502,0.156  c1.436-1.954,0.147-4.237,1.186-6.268c2.238,0.144,4.091,1.375,6.045,2.256c0.922,2.482,0.478,4.901,0.517,7.264  c0.029,1.754,0.568,3.05,2.073,4.028c1.833,1.19,3.278,3.077,5.742,3.118c2.471-2.66,0.077-6.018,1.461-8.859  c1.345-0.876,2.241,0.413,3.604,0.656c0.602,3.562,1.236,7.001,1.757,10.458c2.714,18.024,5.371,36.057,8.1,54.08  c3.039,20.078,6.161,40.143,9.198,60.221c3.349,22.133,6.604,44.28,9.988,66.407c0.796,5.207,1.885,10.371,2.964,15.528  c0.39,1.86,1.126,3.594,2.35,5.184c1.698,2.204,2.13,4.843,1.864,7.575c-1.854,0.875-3.438,0.307-4.953,0.045  c-19.217-3.32-38.42-6.714-57.635-10.048c-17.48-3.033-34.974-5.999-52.457-9.025c-17.482-3.026-34.957-6.1-52.438-9.135  c-15.592-2.707-31.188-5.387-46.781-8.081c-15.595-2.694-31.189-5.383-46.781-8.086c-13.859-2.403-27.715-4.83-41.574-7.23  c-8.032-1.391-16.071-2.743-24.104-4.134c-0.779-0.135-1.534-0.418-2.207-0.606c-2.216-3.623-26.819-63.115-27.657-66.82  c0.1-0.125,0.174-0.32,0.302-0.367c10.659-3.904,20.431-9.865,31.226-13.47c1.628-0.543,3.153-1.54,4.562-2.554  c1.371-0.987,2.76-1.555,4.438-1.382c0.159,0.016,0.322-0.007,0.479,0.015c4.515,0.624,8.132-0.72,10.801-4.585  c1.132-1.638,2.928-2.181,4.982-2.418c2.175-0.25,4.283-1.128,6.403-1.791c1.062-0.332,2.071-0.838,3.129-1.189  c1.874-0.623,3.682-0.772,5.529,0.324c2.019,1.197,4.203,0.76,5.791-0.681c2.722-2.471,5.862-3.037,9.319-3.003  c3.038,0.03,6.082,0,9.116-0.147c2.645-0.128,4.712,0.567,5.863,3.153C936.013,103.679,936.48,104.152,937.187,105.14z"/>
<path xmlns="http://www.w3.org/2000/svg" fill-rule="evenodd" clip-rule="evenodd" d="M539.928,253.233c1.663-0.932,3.155-1.768,4.931-2.763  c-8.126-19.645-16.243-39.057-24.472-58.597c-3.093-0.076-5.554,1.784-8.564,2.165c-1.302-2.18-2.514-4.313-2.548-7.041  c3.585-0.717,7.144-1.013,10.379-2.195c3.092-1.129,5.846-3.179,8.866-4.891c0.642,0.921,1.163,1.669,1.843,2.644  c0.809-0.181,1.731-0.282,2.578-0.592c10.798-3.956,21.531-8.094,32.391-11.872c9.194-3.198,18.379-6.456,27.855-8.795  c5.58-1.378,11.112-2.961,16.631-4.574c12.129-3.544,24.549-5.824,36.85-8.62c3.104-0.705,6.15-1.687,9.185-2.662  c5.528-1.776,11.108-2.906,17.185-1.863c0.776,2,1.601,4.064,2.373,6.146c0.21,0.568,0.266,1.193,0.41,1.875  c-6.898,1.287-13.808,0.906-20.845,1.873c0.248,5.36,1.23,10.128,3.176,14.701c5.255,12.354,10.522,24.702,15.772,37.057  c38.501,90.604,76.999,181.21,115.492,271.818c0.677,1.594,1.278,3.22,1.842,4.648c-0.549,1.234-1.417,1.029-2.166,0.989  c-13.571-0.734-27.141-1.5-40.712-2.226c-8.462-0.452-16.929-0.826-25.392-1.272c-15.489-0.816-30.976-1.663-46.463-2.49  c-8.144-0.435-16.288-0.855-24.432-1.28c-6.706-0.35-13.413-0.691-20.119-1.054c-0.469-0.025-0.931-0.195-1.614-0.345  c-0.646-1.513-1.363-3.106-2.012-4.726c-4.751-11.87-9.659-23.681-14.164-35.643c-2.643-7.017-4.611-14.287-6.939-21.425  c-0.84-2.578-1.729-5.151-2.794-7.643c-20.893-48.946-41.815-97.878-62.726-146.817C541.104,256.312,540.56,254.831,539.928,253.233  z"/>
<path fill-rule="evenodd" clip-rule="evenodd" d="M381.262,267.531c-4.456-8.905-8.816-17.618-13.311-26.601  c-1.137,0.202-2.168,0.384-3.446,0.61c-1.543-1.919-2.633-4.135-3.285-6.716c0.693-0.31,1.243-0.684,1.845-0.805  c5.237-1.062,9.909-3.556,14.7-5.743c6.147-2.805,12.546-4.599,19.271-5.45c6.032-0.763,11.901-2.388,17.637-4.417  c12.652-4.477,25.279-9.023,37.937-13.481c3.313-1.167,6.709-2.098,10.058-3.169c0.722-0.231,1.4-0.599,2.346-1.013  c-1.117-3.36-2.163-6.507-3.301-9.93c0.607-0.404,1.196-0.796,2.083-1.387c1.222,3.104,2.312,5.872,3.484,8.851  c2.655-0.828,5.04-1.572,7.446-2.323c0.677,0.897,1.236,1.638,1.761,2.334c0.383,0.042,0.723,0.183,0.979,0.091  c6.766-2.427,13.585-4.706,20.079-7.845c2.417-1.168,4.886-2.387,7.759-2.373c1.461,1.225,1.68,3.055,2.383,4.617  c0.715,1.589,1.354,3.212,2.062,4.905c3.1,0.107,5.508-1.978,8.762-2.098c2.761,5.591,4.947,11.582,7.452,17.427  c2.582,6.024,5.089,12.082,7.576,18.146c2.414,5.884,5.096,11.664,7.248,17.817c-1.67,0.933-3.151,1.76-4.854,2.712  c0.673,1.663,1.237,3.127,1.854,4.569c21.115,49.393,42.243,98.781,63.335,148.185c1.315,3.081,2.566,6.221,3.468,9.44  c3.84,13.732,8.995,26.981,14.389,40.152c2.242,5.474,4.387,10.987,6.561,16.489c0.341,0.863,0.604,1.758,0.854,2.49  c-0.955,1.467-2.144,0.954-3.185,0.902c-9.586-0.474-19.167-1.043-28.756-1.429c-3.186-0.128-6.398,0.065-9.58,0.331  c-9.881,0.823-19.752,1.751-29.627,2.64c-4.619,0.416-9.238,0.837-13.857,1.255c-0.952,0.086-2.019,0.305-2.482-0.832  c-0.532-1.303-1.535-1.5-2.717-1.412c-2.232,0.167-4.468,0.316-6.694,0.551c-12.454,1.313-22.572-3.104-30.602-12.532  c-5.588-6.562-9.146-14.215-11.691-22.382c-0.469-1.505-0.919-3.016-1.417-4.652c-1.912,0.458-3.587,0.859-5.532,1.325  c-0.574-1.109-1.217-2.174-1.697-3.307c-2.87-6.771-5.672-13.57-8.565-20.332c-0.814-1.903-1.776-3.755-2.808-5.551  c-2.427-4.228-6.001-6.502-11.011-6.181c-0.478,0.03-0.966,0.057-1.438-0.005c-3.332-0.435-6.243,0.636-9.115,2.229  c-4.036,2.238-8.188,4.263-12.25,6.357c-2.185-3.059-5.646-10.582-7.165-15.523c1.268-0.762,2.593-1.559,3.977-2.391  c0.517-1.742-0.648-3.057-1.241-4.46c-11.018-26.063-22.072-52.112-33.126-78.16c-4.934-11.626-9.884-23.246-14.825-34.869  c-0.313-0.736-0.628-1.471-0.923-2.214C379.165,270.1,379.168,270.098,381.262,267.531z"/>
</svg>